<?xml version="1.0" encoding="utf-8"?>
<!-- Generator: Adobe Illustrator 16.0.0, SVG Export Plug-In . SVG Version: 6.00 Build 0)  -->
<!DOCTYPE svg PUBLIC "-//W3C//DTD SVG 1.1//EN" "http://www.w3.org/Graphics/SVG/1.1/DTD/svg11.dtd">
<svg version="1.1" xmlns="http://www.w3.org/2000/svg" xmlns:xlink="http://www.w3.org/1999/xlink" x="0px" y="0px"
	 width="1062.258px" height="963.5px" viewBox="0 0 1062.258 963.5" enable-background="new 0 0 1062.258 963.5"
	 xml:space="preserve">
<g id="Capa_1">
	<ellipse fill-rule="evenodd" clip-rule="evenodd" fill="#F7928F" cx="142.747" cy="797.196" rx="19.202" ry="19.424"/>
	<path fill-rule="evenodd" clip-rule="evenodd" fill="#F7928F" d="M692.869,96.932l-6.73,14.286h-16.025l6.685,14.011l-4.945,16.484
		l19.643-4.258l15.797,5.357l-1.648-11.676c0,0,15.11-11.539,14.698-11.264s-15.934-5.907-15.934-5.907l-3.984-17.033H692.869z"/>
	<polygon fill-rule="evenodd" clip-rule="evenodd" fill="#F7928F" points="849.758,496.762 878.758,499 883.312,568.5 
		849.758,555.5 	"/>
	<polygon fill-rule="evenodd" clip-rule="evenodd" fill="#F7928F" points="853.258,433.391 879.758,427.5 879.758,485 
		853.258,481.75 	"/>
	<polygon fill-rule="evenodd" clip-rule="evenodd" fill="#F7928F" points="893.393,424.5 891.165,480.008 929.258,485 
		991.508,480.008 991.508,427.5 930.258,419.5 	"/>
	<polygon fill-rule="evenodd" clip-rule="evenodd" fill="#F7928F" points="893.393,496.762 923.758,501.5 987.758,499.131 
		987.758,571 918.758,585.855 891.165,573 	"/>
	<path fill-rule="evenodd" clip-rule="evenodd" fill="#F7928F" d="M283.758,344l78.5,6.876c0,0-21.5,50.19-15,95.157
		c-17.5,11.467-33,50.729-33,50.729s-30.555,20.801-40.277,26.02c-7.388-31.277-42.223-49.681-42.223-49.681
		s30.5-16.101,38.5-47.101S283.758,344,283.758,344z"/>
	<path fill-rule="evenodd" clip-rule="evenodd" fill="#F7928F" d="M447.112,731.248c-1.611-5.77-3.621-12.408-7.694-16.316
		c-9.486-9.098-20.266-16.867-30.686-24.959c-1.995-1.549-4.666-2.5-7.173-3.068c-6.352-1.434-12.79-2.488-19.191-3.707
		c-5.582-1.061-10.979-2.471-14.372-7.732c1.424-0.838,2.639-1.553,3.596-2.115c-2.771-4.295-5.405-8.377-7.813-12.111
		c-9.909,2.211-20.007,4.463-30.004,6.691c-0.108,4.584-0.238,10.117-0.346,14.645c2.421,1.615,4.51,3.008,6.6,4.4
		c-1.978,1.406-3.95,2.822-5.941,4.213c-0.226,0.158-0.566,0.141-0.83,0.26c-11.055,4.91-22.034,9.902-29.598,20.012
		c-4.533,6.057-9.47,11.824-13.738,18.057c-2.242,3.271-4.065,7.113-4.997,10.959c-3.877,16.021-4.307,32.098-1.125,48.43
		c3.787,19.426,13.627,33.686,32.043,41.635c1.989,0.857,3.681,2.457,5.699,3.182c1.155,0.413,2.315,0.876,3.478,1.343
		c6.467,4.328,13.598,7.729,21.208,10.028c-1.278,0.238-2.565,0.483-3.873,0.758c10.97,4.707,21.833,7.119,33.067,6.137
		c13.049-1.139,25.271-5.352,36.318-12.578c15.408-10.086,30.312-20.615,37.171-38.93c3.914-10.453,6.05-21.094,6.135-32.322
		C455.147,755.188,450.491,743.357,447.112,731.248z"/>
	<path fill-rule="evenodd" clip-rule="evenodd" fill="#F7928F" d="M446.875,377.845c17.266-7.897,33.891-10.695,51.413-3.592
		c1.69,0.685,3.969,1.841,5.274,1.246c9.078-4.145,18.424-2.632,27.541-1.205c10.167,1.59,19.188,5.747,25.042,15.125
		c1.754,2.809,4.815,4.798,7.279,7.163c0.663-0.477,1.324-0.953,1.984-1.43c-2.277-8.76-4.585-17.513-6.821-26.283
		c-1.445-5.665-3.057-11.311-4.014-17.061c-0.313-1.875,1.201-4.054,1.88-6.096c1.805,1.118,4.212,1.829,5.294,3.434
		c2.522,3.737,4.61,7.813,6.492,11.925c1.685,3.678,2.859,7.589,4.043,10.81c2.615-1.818,4.958-3.412,7.264-5.059
		c6.354-4.544,6.939-7.222,1.559-13.347c-7.978-9.079-15.956-18.097-26.493-24.65c-13.787-8.575-27.86-13.956-44.614-11.954
		c-14.764,1.764-27.446,6.806-36.018,19.076C464.458,349.573,455.869,363.85,446.875,377.845z"/>
	<path fill-rule="evenodd" clip-rule="evenodd" fill="#F7928F" d="M117.763,468.247c29.563-12.803,52.865-31.25,65.199-61.65
		c4.265-10.514,5.788-20.964,4.213-31.962c-1.292-9.05-7.466-14.014-15.588-16.776c-7.179-2.442-12.051,1.648-16.967,6.189
		c-7.424,6.867-10.3,15.769-12.103,25.178c-1.006,5.261-2.279,10.354-8.889,9.687c-6.655-0.671-6.793-6.221-6.88-11.369
		c-0.036-2.135,0.327-4.358-0.15-6.389c-1.44-6.132-2.818-12.331-4.973-18.228c-1.565-4.287-5.392-5.354-9.996-4.737
		c-11.539,1.55-19.433,10.092-20.502,23.577c-0.579,7.311-0.298,14.703-0.175,22.053
		C91.367,428.705,101.058,449.757,117.763,468.247z"/>
	<path fill-rule="evenodd" clip-rule="evenodd" fill="#F7928F" d="M758.031,548.801c13.845-5.995,24.757-14.635,30.534-28.872
		c1.998-4.924,2.711-9.817,1.975-14.969c-0.607-4.238-3.498-6.563-7.301-7.856c-3.363-1.144-5.645,0.771-7.946,2.898
		c-3.478,3.217-4.824,7.385-5.668,11.792c-0.471,2.464-1.067,4.849-4.163,4.537c-3.116-0.314-3.181-2.914-3.222-5.325
		c-0.017-1,0.153-2.041-0.071-2.991c-0.674-2.872-1.319-5.775-2.329-8.537c-0.732-2.008-2.525-2.507-4.681-2.218
		c-5.404,0.726-9.101,4.726-9.602,11.041c-0.271,3.424-0.14,6.886-0.082,10.328C745.668,530.283,750.207,540.142,758.031,548.801z"
		/>
	<path fill-rule="evenodd" clip-rule="evenodd" fill="#F7928F" d="M849.388,253.357c1.523,0.345,3.058,1.014,4.567,0.959
		c2.384-0.085,4.742-0.883,7.127-0.979c9.364-0.373,18.735-0.666,28.106-0.758c1.098-0.012,2.208,1.404,3.313,2.159
		c-1.021,0.885-1.903,2.134-3.091,2.6c-12.482,4.891-25.68,4.601-38.757,5.078c-0.875,0.032-1.996-0.197-2.62-0.743
		c-4.322-3.795-7.502-1.404-10.265,1.962c-9.005,10.964-13.619,24.039-16.952,37.519c-0.567,2.292,1.607,5.991,3.558,8.05
		c7.187,7.582,17.084,8.368,26.627,8.83c11.055,0.537,22.166-0.205,33.248-0.047c28.249,0.401,54.974-5.447,80.182-18.408
		c12.939-6.654,19.882-18.376,17.767-31.751c-3.717,3.15-7.391,6.268-11.064,9.383c-0.569-0.498-1.139-0.996-1.709-1.494
		c1.718-3.537,3.423-7.081,5.157-10.608c2.02-4.106,4.804-8,5.969-12.333c3.938-14.619,3.173-29.568,3.08-44.593
		c-0.125-20.766-12.342-34.273-25.022-48.683C946.405,205.216,892.695,245.303,849.388,253.357z"/>
	<path fill-rule="evenodd" clip-rule="evenodd" fill="#F7928F" d="M496.299,223.636c-5.861-8.859-10.319-16.283-15.477-23.183
		c-4.58-6.122-4.52-11.661-0.359-17.825c3.166-4.69,5.818-9.727,9.228-15.506c-9.383,1.174-17.799,1.169-25.524,3.482
		c-8.098,2.426-12.963,0.129-18.306-5.692c-5.401-5.884-12.145-10.537-19.86-17.042c0,8.879-0.406,15.337,0.106,21.722
		c0.604,7.573-2.311,12.243-9.263,15.186c-7.167,3.033-14.059,6.714-23.163,11.128c9.89,4.242,17.785,7.179,25.213,11.016
		c3.395,1.753,7.202,4.765,8.507,8.108c3.429,8.778,5.585,18.053,9.025,29.777c6.575-7.347,12.341-13.533,17.808-19.972
		c5.317-6.263,11.677-7.826,19.495-5.84C480.598,220.74,487.618,221.88,496.299,223.636z"/>
	<path fill-rule="evenodd" clip-rule="evenodd" fill="#F7928F" d="M877.213,733.266c-4.215-3.371-8.46-6.095-12.727-8.218
		c-1.23-2.569-4.584-3.728-10.47-4.113c-0.009,0.038-0.019,0.075-0.027,0.113c-14.377-3.842-28.921-1.146-43.333,6.983
		c-4.563,2.572-7.906,6.04-10.561,10.078c-15.036,12.899-23.916,35.906-8.332,58.013c5.975,8.477,12.712,14.716,20.096,18.911
		c1.004,1.239,2.357,2.252,3.37,3.3c0.107-0.472,0.198-0.94,0.296-1.411c3.479,1.618,7.09,2.811,10.822,3.601
		c1.58,3.284,5.285,3.783,12.026,2.298c-0.023-0.375-0.037-0.747-0.053-1.12c2.538-0.02,5.123-0.204,7.749-0.534
		c0.514,0.161,1.027,0.322,1.543,0.484c0.566-0.319,1.131-0.64,1.695-0.961c1.625-0.277,3.264-0.607,4.918-0.997
		c11.065-2.602,17.812-10.819,24.422-20.109c1.06-1.101,2.099-2.231,3.101-3.415C895.535,779.883,900.522,751.899,877.213,733.266z"
		/>
	<path fill-rule="evenodd" clip-rule="evenodd" fill="#F7928F" d="M195.267,96.964c-4.943-3.954-9.921-7.147-14.924-9.637
		c-1.443-3.013-5.375-4.372-12.277-4.824c-0.01,0.044-0.022,0.088-0.032,0.133c-16.859-4.505-33.915-1.344-50.815,8.189
		c-5.352,3.016-9.271,7.083-12.384,11.818c-17.632,15.127-28.045,42.106-9.771,68.03c7.006,9.94,14.907,17.257,23.565,22.177
		c1.177,1.453,2.765,2.641,3.952,3.87c0.126-0.553,0.232-1.103,0.347-1.655c4.08,1.897,8.314,3.296,12.691,4.222
		c1.853,3.851,6.198,4.437,14.103,2.695c-0.027-0.44-0.043-0.876-0.062-1.314c2.976-0.022,6.007-0.239,9.087-0.626
		c0.603,0.189,1.205,0.378,1.81,0.568c0.664-0.375,1.326-0.75,1.988-1.127c1.906-0.325,3.827-0.712,5.767-1.169
		c12.976-3.051,20.887-12.688,28.639-23.582c1.242-1.291,2.461-2.617,3.636-4.004C216.752,151.63,222.601,118.815,195.267,96.964z"
		/>
	<g>
		<path fill-rule="evenodd" clip-rule="evenodd" fill="#775656" d="M846.178,445.11c-6.274,9.251-15.806,10.988-25.664,10.398
			c-3.793-0.227-7.523-3.262-11.027-5.435c-0.886-0.548-1.43-2.993-0.953-4.014c0.456-0.977,2.409-1.589,3.775-1.744
			c4.949-0.564,9.929-0.926,14.901-1.261c9.036-0.609,14.744-6.125,20.36-12.587c7.938-9.133,14.14-20.214,24.945-24.249
			c-0.115-7.106-1.472-13.583,0.021-19.317c1.669-6.42,7.694-9.369,14.498-9.233c1.85-9.874,6.513-15.225,14.825-16.53
			c11.215-1.761,13.41,8.128,17.403,13.414c4.999-2.985,9.53-7.033,14.789-8.517c7.645-2.161,12.859,1.352,16.979,8.502
			c0.932,1.62,2.876,3.527,4.535,3.717c8.96,1.029,14.312,5.006,16.121,12.715c1.742,7.402-1.849,15.708-8.746,19.992
			c-2.002,1.243-4.156,2.238-7.558,4.049c10.587,1.587,19.794,3.244,29.066,4.274c7.907,0.876,10.262,2.501,10.468,10.392
			c0.59,22.554,1.346,45.115,1.179,67.67c-0.164,22.02-1.388,44.031-2.146,66.047c-0.014,0.345,0.016,0.694-0.034,1.033
			c-0.623,4.259,0.008,9.502-2.296,12.454c-1.793,2.302-7.242,1.747-11.066,2.472c-17.412,3.313-34.938,6.119-52.186,10.127
			c-10.421,2.422-19.375,1.051-28.594-4.139c-9.258-5.213-19.175-9.259-28.813-13.793c-7.637-3.594-15.421-6.909-22.846-10.892
			c-1.967-1.056-3.959-4.072-4.054-6.269c-0.376-8.933-0.206-17.902,0.117-26.846c0.336-9.287,1.232-18.555,1.614-27.843
			c0.737-18.018,1.285-36.039,1.912-54.058C847.196,445.463,846.687,445.287,846.178,445.11z M925.072,579.255
			c3.813-0.686,5.647-1.004,7.477-1.345c14.366-2.673,28.714-5.46,43.105-7.983c7.677-1.346,7.681-1.144,7.753-9.065
			c0.147-16,0.308-32,0.526-48.002c0.043-2.998,0.393-5.992,0.63-9.424c-18.541,0-36.442,0-54.776,0
			C928.262,527.967,926.7,553.112,925.072,579.255z M943.733,444.365c0.354,0.683,0.706,1.367,1.062,2.05
			c-3.061,2.518-6.125,5.033-9.182,7.554c-1.109,0.914-3.092,1.772-3.169,2.774c-0.6,7.627-0.824,15.285-1.188,23.467
			c18.612-1.031,36.553-2.024,55.081-3.051c0-15.9,0-31.639,0-47.248c-17.542-3.245-35.003-6.591-53.226-5.723
			c0,7.656,0,14.947,0,22.631C936.964,445.93,940.35,445.147,943.733,444.365z M895.763,500.217
			c0.675,23.174,1.323,45.984,2.061,68.793c0.036,1.085,0.561,2.671,1.369,3.136c5.706,3.274,11.546,6.316,17.064,9.284
			c1.455-26.886,2.849-52.669,4.249-78.562C912.467,502.008,904.829,501.188,895.763,500.217z M874.585,501.106
			c-5.032,0-10.188,0.389-15.25-0.129c-3.762-0.386-4.89,0.721-4.983,4.291c-0.392,14.628-0.994,29.25-1.384,43.877
			c-0.032,1.148,0.646,2.968,1.515,3.388c7.548,3.628,15.214,7.008,23.525,10.768C876.845,542.171,875.744,522.169,874.585,501.106z
			 M896.298,478.334c9.079,1.229,17.132,2.317,25.647,3.471c0.554-9.452,1.053-18.003,1.478-25.235
			c-6.272-3.885-12.658-6.391-16.938-10.898c-4.248-4.477-6.379-10.966-9.438-16.573c-0.251,0.112-0.499,0.223-0.749,0.333
			C896.298,445.625,896.298,461.817,896.298,478.334z M875.023,481.476c0-16.201,0-32.137,0-48.704
			c-6.734,1.418-13.01,2.741-18.614,3.921c0,15.015,0,29.387,0,43.285C862.988,480.507,868.768,480.972,875.023,481.476z
			 M888.678,409.992c0.599,0.435,1.384,1.085,2.242,1.615c5.136,3.17,6.005,2.577,9.732-2.057c2.725-3.389,6.633-5.814,9.962-8.731
			c1.038-0.91,2.421-1.87,2.764-3.062c2.628-9.136-0.245-17.237-5.3-24.733c-3.227-4.782-9.49-4.474-11.71,0.758
			c-0.983,2.32-0.986,5.511-0.301,7.991c1.409,5.086,3.672,9.928,5.38,14.94c0.478,1.405,0.24,3.055,0.328,4.593
			c-1.652-0.46-3.952-0.395-4.835-1.481c-2.57-3.169-4.811-6.673-6.727-10.287c-1.671-3.149-4.548-4.022-6.785-2.465
			c-1.987,1.386-4.064,4.895-3.645,6.968c0.663,3.271,0.075,8.311,5.82,8.835c1.813,0.166,3.814,1.226,5.094,2.509
			C891.11,405.799,889.48,408.244,888.678,409.992z M883.393,431.307c0,25.965-0.256,51.405,0.087,76.84
			c0.246,18.377,1.23,36.746,2.091,55.11c0.062,1.324,1.774,2.573,3.223,4.539c0-46.68,0-91.844,0-137.398
			C886.544,430.777,885.229,430.998,883.393,431.307z M923.078,414.605c7.244-0.698,18.349-15.933,18.92-25.739
			c-1.519,0.677-2.817,1.521-4.229,1.816c-1.66,0.345-3.42,0.213-5.138,0.29c0.409-1.829,0.219-4.297,1.349-5.361
			c2.653-2.501,5.94-4.332,8.977-6.438c-3.237-6.261-8.471-7.052-12.827-1.459C921.614,388.642,919.805,401.022,923.078,414.605z
			 M930.495,494.94c17.938-0.461,35.052-0.837,52.16-1.386c4.188-0.135,3.028-3.005,2.421-6.004
			c-17.98,0.82-35.764,1.631-53.963,2.461C931.014,490.814,930.852,492.1,930.495,494.94z M924.723,425.089
			c-6.454,1.059-12.405,2.035-18.4,3.019c2.99,12.288,8.688,18.059,17.34,17.94C924.006,439.242,924.352,432.434,924.723,425.089z
			 M946.722,405.083c4.881,1.783,11.127-0.584,14.297-5.158c2.314-3.336,2.991-6.946,0.247-9.964
			c-1.526-1.679-4.36-2.523-6.733-2.866c-0.748-0.108-2.202,2.511-2.824,4.083C949.943,395.65,948.439,400.226,946.722,405.083z
			 M887.575,420.087c-3.216-2.572-5.649-4.648-8.242-6.5c-0.676-0.483-2.16-0.71-2.751-0.301
			c-4.746,3.291-9.366,6.762-14.024,10.178c0.324,0.505,0.647,1.009,0.971,1.513C871.18,423.421,878.831,421.866,887.575,420.087z
			 M897.126,486.463c-0.525,0.401-1.052,0.804-1.578,1.206c1.004,1.733,1.821,4.807,3.041,4.977
			c6.78,0.942,13.655,1.245,20.507,1.563c0.769,0.036,1.596-1.211,2.396-1.863c-0.692-0.766-1.288-2.069-2.094-2.214
			C911.994,488.794,904.557,487.657,897.126,486.463z M876.343,494.022c-1.32-2.131-1.923-4.359-2.981-4.6
			c-5.443-1.239-11.004-1.968-16.959-2.944c-0.324,2.969-0.557,5.09-0.823,7.544C862.229,494.022,868.352,494.022,876.343,494.022z
			 M915.614,416.662c-0.672-3.62-1.212-6.539-1.945-10.487c-2.768,3.064-4.733,5.239-7.024,7.777
			C909.862,414.924,912.345,415.674,915.614,416.662z"/>
	</g>
	<g>
		<path fill-rule="evenodd" clip-rule="evenodd" fill="#775656" d="M840.621,113.362c-5.971-6.85-12.616-6.179-19.825-1.61
			c-8.271,5.244-16.694,10.256-25.16,15.183c-1.308,0.761-3.193,0.527-4.813,0.753c0.384-1.592,0.313-3.534,1.223-4.724
			c7.9-10.326,17.938-18.039,30.218-23.621c-5.614-9.052-7.018-18.719-1.903-27.864c5.943-10.629,16.655-6.96,26.433-7.268
			c-0.04,0.055,0.384-0.324,0.571-0.797c5.461-13.702,19.621-17.207,30.924-7.368c7.153,6.227,10.87,13.975,8.272,23.752
			c-0.95,3.571-1.967,7.123-2.868,10.706c-0.408,1.626-0.613,3.304-1.154,6.327c8.013-2.772,14.736-5.122,21.476-7.422
			c4.361-1.488,8.67-3.375,13.162-4.134c1.952-0.33,5.642,1.194,6.277,2.781c7.183,17.957,17.677,34.677,20.628,55.074
			c10.743-1.606,16.362,5.881,21.965,13.062c6.577,8.426,13.867,16.562,18.83,25.896c3.845,7.231,5.998,16.043,6.394,24.274
			c0.673,13.949-0.838,27.99-1.017,41.998c-0.078,6.242,1.172,12.493,1.25,18.748c0.275,22.137-9.05,37.473-29.877,47.183
			c-25.448,11.862-51.762,17.033-79.519,16.573c-9.224-0.152-18.491,0.373-27.659-0.377c-9.13-0.747-18.665-1.332-27.125-4.433
			c-15.546-5.699-24.845-17.373-17.282-35.036c4.943-11.549,8.639-23.657,17.284-33.224c1.574-1.743,3.542-3.132,4.427-3.902
			c-5.642-4.501-11.27-8.204-15.914-12.882c-6.896-6.945-6.066-15.324-2.773-23.792c0.534-1.374,0.95-3.295,0.405-4.509
			c-5.741-12.812-2.288-23.822,9.939-31.018c0.148-0.087,0.238-0.272,0.87-1.022c-1.271-2.979-2.753-6.286-4.104-9.646
			c-4.34-10.804-8.763-21.577-12.895-32.46c-2.804-7.38-1.381-11.115,5.826-14.255C822.19,120.347,831.52,116.952,840.621,113.362z
			 M846.784,254.527c1.523,0.345,3.058,1.014,4.567,0.959c2.384-0.085,4.742-0.883,7.127-0.979
			c9.364-0.373,18.735-0.666,28.106-0.758c1.098-0.012,2.208,1.404,3.313,2.159c-1.021,0.885-1.903,2.134-3.091,2.6
			c-12.482,4.891-25.68,4.601-38.757,5.078c-0.875,0.032-1.996-0.197-2.62-0.743c-4.322-3.795-7.502-1.404-10.265,1.962
			c-9.005,10.964-13.619,24.039-16.952,37.519c-0.567,2.292,1.607,5.991,3.558,8.05c7.187,7.582,17.084,8.368,26.627,8.83
			c11.055,0.537,22.166-0.205,33.248-0.047c28.249,0.401,54.974-5.447,80.182-18.408c12.939-6.654,19.882-18.376,17.767-31.751
			c-3.717,3.15-7.391,6.268-11.064,9.383c-0.569-0.498-1.139-0.996-1.709-1.494c1.718-3.537,3.423-7.081,5.157-10.608
			c2.02-4.106,4.804-8,5.969-12.333c3.938-14.619,3.173-29.568,3.08-44.593c-0.125-20.766-12.342-34.273-25.022-48.683
			C943.802,206.386,890.092,246.473,846.784,254.527z M936.148,157.342c-0.331-0.308-0.661-0.615-0.992-0.922
			c-1.075,0.734-2.221,1.386-3.213,2.218c-2.953,2.475-5.565,5.483-8.813,7.459c-12.141,7.388-24.416,14.56-36.761,21.603
			c-17.762,10.134-36.942,10.873-56.538,7.847c-5.654-0.874-7.6,0.268-8.041,6.066c-0.333,4.34,3.773,9.381,8.107,10.304
			c3.458,0.737,6.844,1.815,10.262,2.743c-0.098,0.844-0.193,1.688-0.293,2.531c-3.892,0.452-7.847,0.625-11.649,1.474
			c-1.914,0.426-4.438,1.67-5.172,3.248c-4.183,9.001,3.313,19.12,14.495,19.434c13.697,0.385,26.773-1.929,38.504-9.759
			c6.297-4.203,12.97-7.838,19.404-11.84c21.116-13.132,37.146-30.792,47.22-53.628c1.293-2.93,1.849-6.185,2.744-9.289
			c-4.429,4.821-7.512,10.29-11.373,15.136c-3.634,4.56-6.89,9.781-12.188,12.651c-0.405-0.346-0.808-0.691-1.211-1.037
			C925.811,174.833,930.979,166.088,936.148,157.342z M817.394,134.294c6.215,17.148,12.156,33.538,18.357,50.651
			c10.175,0.447,21.266,1.175,31.671-2.181c-8.226-19.426-16.248-38.37-24.562-58C834.76,127.796,826.518,130.879,817.394,134.294z
			 M864.977,117.816c8.117,18.29,16.089,36.248,24.581,55.379c7.958-4.863,14.76-9.179,21.729-13.202
			c2.929-1.691,3.124-3.354,1.729-6.259c-5.819-12.139-11.375-24.404-17.114-36.582c-1.712-3.634-3.705-7.134-5.935-11.39
			C881.576,109.809,873.534,113.688,864.977,117.816z M900.669,100.262c1.024,2.467,1.707,4.366,2.577,6.174
			c5.933,12.306,12.416,24.377,17.704,36.951c4.258,10.121,5.308,9.968,13.053,3.04c1.229-1.1,1.937-3.869,1.521-5.522
			c-1.309-5.18-2.953-10.329-5.038-15.246c-4.432-10.446-9.224-20.741-14.003-31.4C910.921,96.371,906.119,98.193,900.669,100.262z
			 M852.473,94.007c-1.866-4.85-4.214-9.184-5.119-13.803c-0.869-4.429-3.219-5.926-7.086-6.145
			c-2.942-0.164-5.973-0.459-8.827,0.058c-1.718,0.312-4.184,1.795-4.574,3.225c-1.515,5.576-2.274,11.433,1.916,16.322
			c1.135,1.326,3.4,2.505,5.068,2.407C839.907,95.711,845.933,94.781,852.473,94.007z M876.419,89.752
			c1.153-5.248,2.481-9.47,2.94-13.784c0.839-7.895-5.501-15.814-13.316-17.271c-6.936-1.293-10.043,0.896-11.683,8.687
			C865.023,70.713,869.334,80.715,876.419,89.752z M851.257,122.298c7.021,20.067,15.889,38.737,26.51,56.546
			c0.775-0.343,1.552-0.688,2.326-1.032c-7.915-18.955-15.833-37.908-23.916-57.254C854.39,121.19,852.927,121.707,851.257,122.298z
			 M868.92,96.211c-4.782-6.3-8.754-11.532-12.727-16.765C856.792,89.848,860.333,94.636,868.92,96.211z"/>
	</g>
	<g>
		<path fill-rule="evenodd" clip-rule="evenodd" fill="#775656" d="M132.608,595.527c-11.33-4.61-15.493-12.083-13.279-21.84
			c2.398-10.573,8.825-18.181,19.634-21.871c17.53-5.978,31.237,0.846,43.421,12.526c5.058,4.848,4.948,13.731,0.471,19.848
			c-2.053,2.804-4.408,5.389-6.939,8.45c1.362,0.691,2.578,1.309,3.795,1.922c8.472,4.282,14.875,10.231,18.393,19.482
			c5.195,13.668,8.182,27.713,10.32,42.146c3.029,20.469,11.591,38.152,29.084,50.563c6.648,4.709,7.404,15.764,1.638,23.198
			c-4.523,5.829-10.035,9.956-17.056,13.216c-20.766,9.641-43.004,13.333-64.954,18.397c-2.248,0.518-5.611,2.206-5.934,3.849
			c-0.7,3.567-0.366,7.058,4.637,9.031c9.331,3.687,12.874,10.232,11.606,20.177c-1.407,11.035-6.571,20.604-17.219,24.463
			c-10.38,3.759-21.042,2.566-29.787-5.748c-3.883-3.692-6.086-8.04-5.13-13.295c2.102-11.553,6.873-21.224,19.055-25.437
			c2.712-0.936,6.955-0.704,6.35-5.91c-0.399-3.441-1.465-4.603-5.149-5.38c-18.072-3.805-37.044-4.4-53.733-13.356
			c-6.71-3.602-12.864-8.36-18.888-13.084c-9.644-7.557-8.538-26.69,6.069-29.787c3.446-0.729,7.736-4.598,8.853-7.95
			c4.33-12.997,7.097-26.511,11.28-39.564c4.517-14.097,9.335-28.165,15.209-41.731
			C109.249,606.541,119.009,599.742,132.608,595.527z M202.623,737.357c7.194-2.729,13.692-4.451,19.375-7.63
			c3.393-1.9,5.845-5.873,7.999-9.362c0.695-1.122-0.3-4.459-1.565-5.447c-19.236-15.062-28.028-35.569-32.249-58.941
			c-2.271-12.566-5.911-24.907-9.28-37.255c-1.961-7.192-7.613-10.6-14.309-13.249c-13.211-5.228-25.946-3.168-38.699,1.28
			c-8.051,2.808-15.398,7.081-18.794,15.133c-5.466,12.952-10.566,26.118-14.782,39.521c-3.239,10.293-4.283,21.269-7.393,31.614
			c-3.182,10.588-7.34,20.893-19.486,24.957c-6.952,2.325-8.011,7.029-2.045,11.583c6.612,5.04,13.819,10.301,21.611,12.588
			c14.713,4.313,29.982,6.839,45.125,9.502c4.143,0.727,8.868-0.023,12.974-1.265c11.471-3.471,23.61-4.326,34.414-10.768
			c4.906-2.926,7.374-5.782,8.422-10.908c1.314-6.433-4.138-8.881-7.119-12.804c-11.055-14.548-17.2-30.684-18.422-49.164
			c-0.85-12.833-1.699-26.081-8.985-37.616c-0.662-1.05-0.485-3.528,0.319-4.362c0.849-0.882,3.067-1.111,4.425-0.72
			c5.183,1.489,7.667,5.599,8.56,10.538c2.053,11.355,3.722,22.779,5.749,34.141c2.299,12.892,4.856,25.952,13.811,36.049
			C200.433,713.973,205.354,723.73,202.623,737.357z M155.353,588.794c7.931-1.033,13.668-4.33,18.061-10.053
			c2.699-3.52,2.582-6.96-1.27-9.415c-4.759-3.031-9.542-6.265-14.746-8.316c-9.423-3.715-23.385,2.662-27.346,11.801
			c-1.44,3.33-1.156,5.74,2.503,7.67c9.442,4.985,22.402,1.003,27.413-8.509c0.699-1.326,2.547-2.048,3.863-3.051
			c0.675,1.57,2.177,3.344,1.856,4.672c-0.669,2.743-2.027,5.441-3.629,7.8C160.435,583.783,158.175,585.738,155.353,588.794z
			 M138.653,807.869c10.159,0.093,17.394-7.048,16.569-15.892c-0.187-2.003-2.478-5.218-4.093-5.412
			c-4.582-0.551-9.743-0.895-13.854,0.742c-3.209,1.279-5.739,5.34-7.596,8.701c-3.347,6.049-0.68,10.632,6.234,11.706
			C137.174,807.91,138.475,807.86,138.653,807.869z"/>
	</g>
	<g>
		<path fill-rule="evenodd" clip-rule="evenodd" fill="#775656" d="M712.383,474.365c-4.568,15.982-9.587,31.698-13.453,47.693
			c-2.822,11.689-3.829,23.803-6.167,35.625c-2.612,13.197-5.413,26.393-8.963,39.357c-1.418,5.188-4.102,10.747-7.876,14.43
			c-9.642,9.405-25.649,3.419-30.575-10.487c-2.972-8.386-1.313-16.205,1.467-24.066c4.518-12.758,8.401-25.561,8.674-39.342
			c0.141-7.122,1.741-14.259,3.115-21.305c3.59-18.398,6.64-36.956,11.382-55.059c4.524-17.256,9.652-34.583,16.84-50.853
			c6.993-15.831,14.974-32.348,33.969-37.701c5.896-1.661,12.36-1.8,18.562-1.794c30.756,0.028,53.023,27.271,46.643,57.447
			c-1.842,8.709-7.745,15.438-15.909,19.171c-9.231,4.222-17.937-0.626-19.863-10.535c-0.902-4.638-1.317-9.373-1.941-14.065
			c-0.898-6.745-8.11-10.27-13.502-6.022c-3.306,2.598-6.38,6.252-8.009,10.089C720.284,442.248,712.548,457.228,712.383,474.365z
			 M711.857,425.729c5.189-6.424,9.648-13.096,15.278-18.568c4.989-4.853,6.791-11.461,2.584-17.368
			c-1.5-2.1-3.474-3.864-5.165-5.71c-11.597,3.657-27.921,25.119-27.946,36.137C702.1,422.202,707.467,424.142,711.857,425.729z
			 M696.312,483.524c1.763-7.767,3.697-15.56,5.27-23.427c1.458-7.313-1.651-11.097-9.148-12.19c-3.512-0.513-5.6,0.241-6.489,4.051
			c-0.672,2.866-2.265,5.504-3.28,8.303c-2.579,7.106-5.063,14.245-7.56,21.297C682.925,482.284,689.507,482.894,696.312,483.524z
			 M759.587,386.775c-1.705,7.51-3.104,13.429-4.339,19.381c-0.182,0.884,0.357,1.946,0.656,2.895
			c1.548,4.911,3.373,9.746,4.616,14.73c1.026,4.114,1.38,8.399,2.044,12.695c5.759-1.601,11.238-7.509,11.527-12.496
			C774.906,410.087,770.813,397.979,759.587,386.775z M676.597,571.296c-1.969-0.351-3.307-1.031-4.299-0.691
			c-4.951,1.688-12.082,2.307-14.159,5.831c-2.909,4.938-2.583,12.104-2.597,18.318c-0.011,4.787,5.637,10.528,9.094,10.181
			c5.334-0.535,7.076-4.883,7.944-9.228C674.154,587.83,675.219,579.85,676.597,571.296z M687.072,514.889
			c-2.999-0.682-5.834-1.594-8.738-1.932c-7.179-0.834-8.878,0.637-9.913,7.649c-0.56,3.796-1.422,7.548-1.979,11.344
			c-0.442,2.999-0.625,6.034-0.884,8.635c6.625,0.558,12.462,1.052,18.669,1.577C685.162,533.221,686.088,524.308,687.072,514.889z
			 M672.394,500.441c5.573,0.629,10.532,1.39,15.514,1.617c1.386,0.063,2.842-1.454,4.268-2.244
			c-0.828-1.266-1.469-3.41-2.525-3.641c-4.022-0.876-8.17-1.431-12.287-1.545C673.468,494.522,671.794,496.871,672.394,500.441z
			 M661.88,560.079c6.168-0.142,10.97-0.148,15.758-0.445c1.082-0.068,2.607-0.91,3.016-1.81c0.465-1.018,0.093-3.567-0.243-3.627
			c-4.729-0.851-9.592-2.104-14.249-1.617C664.517,552.756,663.338,557.371,661.88,560.079z M740.561,382.762
			c1.474,6.815,2.833,13.073,4.31,19.884c1.405-6.193,2.719-11.985,4.079-17.98C745.732,383.936,742.955,383.305,740.561,382.762z
			 M690.959,436.229c4.965,1.667,9.312,3.183,13.707,4.553c0.811,0.251,1.805-0.089,2.714-0.155
			c-0.228-1.04-0.114-2.654-0.737-3.021c-3.246-1.908-6.57-3.777-10.075-5.122C692.947,431.094,690.992,432.8,690.959,436.229z"/>
	</g>
	<g>
		<path fill-rule="evenodd" clip-rule="evenodd" fill="#775656" d="M632.905,72.12c-16.244,13.868-30.181,25.561-43.896,37.512
			c-30.766,26.809-49.755,61.483-65.19,98.454c-3.747,8.972-6.601,18.336-10.677,27.144c-1.1,2.378-5.374,5.015-7.862,4.723
			c-10.611-1.246-21.179-3.192-31.594-5.614c-4.893-1.138-8.503-1.091-11.917,3.013c-8.104,9.741-16.338,19.376-24.817,28.79
			c-1.986,2.204-5.147,3.347-7.769,4.978c-1.557-2.633-3.755-5.083-4.559-7.93c-3.182-11.28-6.088-22.646-8.759-34.06
			c-1.119-4.781-3.342-7.407-8.108-9.476c-9.357-4.058-18.36-9.057-27.128-14.304c-7.159-4.285-8.027-8.234-3.04-14.779
			c9.666-12.692,20.016-24.861,29.82-37.453c1.966-2.528,3.92-5.976,3.894-8.979c-0.089-9.989,4.444-17.539,11.84-23.142
			c25.43-19.261,52.775-35.948,83.24-45.077c20.017-5.997,41.067-10.594,62.673-9.62c11.931,0.538,23.996-1.405,35.884-0.572
			C613.804,66.35,622.484,69.628,632.905,72.12z M560.738,92.034c0.656,0.763,1.312,1.526,1.969,2.289
			c-7.583,6.938-15.417,13.626-22.682,20.884c-7.72,7.711-15.438,15.547-22.14,24.119c-4.921,6.292-7.949,13.476-9.399,22.083
			c-1.503,8.912-7.98,16.977-12.205,25.45c-0.845,1.699-2.44,4.218-1.828,5.258c4.299,7.288,9.086,14.287,13.825,21.541
			c18.072-52.924,44.908-97.965,91.235-131.061c-11.154,0-20.146-0.771-28.959,0.151c-22.274,2.33-44.489,5.261-66.671,8.349
			c-4.077,0.568-8.103,2.621-11.792,4.646c-16.416,9.01-32.715,18.228-49.014,27.445c-4.032,2.283-7.909,4.842-12.694,7.793
			c8.376,6.676,16.208,12.413,23.396,18.864c3.569,3.201,6.323,5.092,11.602,3.964c8.496-1.814,17.27-2.59,25.968-3.088
			c4.514-0.259,6.744-1.971,9.326-5.646c8.41-11.973,16.735-24.204,26.693-34.84C536.181,100.82,547.655,94.41,560.738,92.034z
			 M496.239,223.764c-5.861-8.859-10.319-16.283-15.477-23.183c-4.58-6.122-4.52-11.661-0.359-17.825
			c3.166-4.69,5.818-9.727,9.228-15.506c-9.383,1.174-17.799,1.169-25.524,3.482c-8.098,2.426-12.963,0.129-18.306-5.692
			c-5.401-5.884-12.145-10.537-19.86-17.042c0,8.879-0.406,15.337,0.106,21.722c0.604,7.573-2.311,12.243-9.263,15.186
			c-7.167,3.033-14.059,6.714-23.163,11.128c9.89,4.242,17.785,7.179,25.213,11.016c3.395,1.753,7.202,4.765,8.507,8.108
			c3.429,8.778,5.585,18.053,9.025,29.777c6.575-7.347,12.341-13.533,17.808-19.972c5.317-6.263,11.677-7.826,19.495-5.84
			C480.537,220.868,487.557,222.008,496.239,223.764z"/>
	</g>
	<g>
		<path fill-rule="evenodd" clip-rule="evenodd" fill="#775656" d="M141.469,366.484c1.5-1.654,3.099-3.475,4.755-5.238
			c7.622-8.106,16.417-12.852,27.834-9.021c12.119,4.064,20.554,11.811,22.595,24.895c2.102,13.481,0.063,26.25-6.204,38.676
			c-8.563,16.977-18.522,32.522-35.313,42.487c-6.776,4.021-13.741,7.723-20.639,11.54c-0.718,0.398-1.607,0.484-2.327,0.879
			c-9.456,5.211-9.776,5.564-17.961-2.14c-16.773-15.784-25.701-35.469-26.946-58.458c-0.471-8.7-0.687-17.476-0.109-26.158
			c1.192-17.994,13.235-30.541,29.654-32.41c9.695-1.104,16.504,2.573,21.296,10.734c0.731,1.25,1.496,2.479,2.273,3.7
			C140.472,366.117,140.742,366.151,141.469,366.484z M123.118,461.009c25.848-11.194,46.221-27.323,57.005-53.902
			c3.729-9.192,5.061-18.33,3.684-27.945c-1.129-7.913-6.528-12.253-13.629-14.667c-6.276-2.135-10.537,1.441-14.834,5.412
			c-6.491,6.004-9.006,13.787-10.582,22.014c-0.88,4.6-1.992,9.053-7.772,8.47c-5.818-0.586-5.939-5.439-6.016-9.94
			c-0.031-1.867,0.286-3.81-0.131-5.585c-1.259-5.361-2.464-10.781-4.348-15.937c-1.369-3.748-4.714-4.681-8.74-4.142
			c-10.089,1.355-16.991,8.824-17.925,20.614c-0.506,6.392-0.26,12.855-0.153,19.282
			C100.039,426.436,108.512,444.843,123.118,461.009z"/>
	</g>
	<g>
		<path fill-rule="evenodd" clip-rule="evenodd" fill="#775656" d="M769.641,499.084c0.826-0.911,1.706-1.914,2.617-2.884
			c4.196-4.463,9.038-7.075,15.323-4.966c6.672,2.237,11.313,6.502,12.438,13.705c1.157,7.421,0.035,14.45-3.414,21.291
			c-4.715,9.345-10.196,17.903-19.44,23.389c-3.73,2.215-7.564,4.252-11.361,6.352c-0.396,0.22-0.886,0.268-1.281,0.485
			c-5.206,2.868-5.382,3.063-9.888-1.179c-9.233-8.688-14.148-19.525-14.834-32.181c-0.259-4.789-0.378-9.62-0.06-14.4
			c0.657-9.905,7.286-16.812,16.325-17.841c5.337-0.608,9.085,1.416,11.723,5.909c0.402,0.688,0.823,1.364,1.252,2.035
			C769.092,498.882,769.241,498.9,769.641,499.084z M760.506,548.312c12.899-5.304,23.066-12.944,28.449-25.539
			c1.861-4.355,2.525-8.684,1.839-13.239c-0.565-3.748-3.259-5.805-6.802-6.95c-3.132-1.011-5.259,0.684-7.405,2.565
			c-3.238,2.844-4.494,6.532-5.28,10.429c-0.438,2.18-0.995,4.29-3.879,4.014c-2.903-0.277-2.963-2.576-3.001-4.71
			c-0.016-0.885,0.143-1.804-0.065-2.646c-0.629-2.541-1.229-5.108-2.17-7.551c-0.683-1.774-2.353-2.218-4.361-1.962
			c-5.035,0.643-8.479,4.181-8.946,9.767c-0.253,3.028-0.13,6.091-0.076,9.136C748.989,531.933,753.218,540.652,760.506,548.312z"/>
	</g>
	<g>
		<path fill-rule="evenodd" clip-rule="evenodd" fill="#775656" d="M479.216,653.915c0.268-0.932,0.543-1.948,0.852-2.951
			c1.421-4.619,3.943-8.151,9.127-8.842c5.502-0.733,10.272,0.675,13.57,5.386c3.398,4.854,5.046,10.223,4.98,16.267
			c-0.093,8.256-1.001,16.223-5.643,23.319c-1.873,2.864-3.88,5.64-5.84,8.446c-0.204,0.292-0.534,0.497-0.738,0.788
			c-2.69,3.84-2.748,4.039-7.413,2.601c-9.558-2.944-16.805-8.913-21.688-17.639c-1.847-3.301-3.609-6.682-5.046-10.178
			c-2.976-7.243-0.681-14.438,5.364-18.308c3.569-2.285,6.927-2.154,10.356,0.112c0.524,0.348,1.057,0.68,1.594,1.006
			C478.757,653.963,478.869,653.925,479.216,653.915z M489.85,691.955c7.293-8.238,11.84-17.182,11.276-27.973
			c-0.195-3.731-1.229-7.027-3.298-10.016c-1.702-2.458-4.325-2.979-7.232-2.56c-2.569,0.372-3.487,2.312-4.354,4.39
			c-1.306,3.14-0.913,6.188-0.116,9.222c0.447,1.696,0.787,3.383-1.353,4.189c-2.152,0.813-2.994-0.795-3.762-2.293
			c-0.318-0.62-0.525-1.327-0.966-1.852c-1.329-1.581-2.645-3.19-4.16-4.594c-1.101-1.02-2.437-0.754-3.771,0.126
			c-3.343,2.205-4.553,5.907-2.942,10.025c0.873,2.232,2.024,4.359,3.121,6.497C476.002,684.356,482.027,689.063,489.85,691.955z"/>
	</g>
	<g>
		<path fill-rule="evenodd" clip-rule="evenodd" fill="#775656" d="M815.025,830.798c-11.728-2.666-19.953-11.8-27.813-21.34
			c-15.026-18.237-20.118-38.169-9.268-60.312c7.447-15.192,19.899-25.448,35.194-31.789c10.33-4.282,21.232-8.938,32.115-9.606
			c9.135-0.563,19.344,2.931,27.812,7.163c38.112,19.058,37.825,63.498,20.601,89.516
			C874.795,832.931,849.693,841.521,815.025,830.798z M849.22,720.91c-0.563-0.372-1.122-0.746-1.686-1.121
			c-13.923,3.28-27.674,6.857-39.884,14.963c-17.778,11.799-30.364,37.285-13.17,61.677c16.057,22.781,37.611,29.421,62.463,23.569
			c11.952-2.811,18.865-12.17,26.011-22.359c-4.309,1.005-7.517,1.758-11.649,2.723c19.865-22.419,24.224-31.849,19.849-42.116
			c-10.877,18.185-12.808,20.569-20.656,25.498c-10.929,6.862-26.299,8.921-31.196,3.914c0.806-0.597,1.515-1.272,2.35-1.714
			c8.113-4.299,16.535-8.093,24.305-12.938c12.092-7.532,17.602-21.764,14.477-35.684c-0.438-1.954-1.856-3.687-2.721-5.324
			c-3.612,6.515-6.021,13.251-10.413,18.237c-7.325,8.319-16.485,14.681-27.455,17.706c-1.447,0.398-3.218-0.364-4.837-0.591
			c0.767-1.43,1.197-3.267,2.356-4.222c7.239-5.969,14.969-11.387,21.854-17.729c3.277-3.018,5.875-7.389,7.342-11.64
			c3.045-8.833,0.461-11.846-9.825-12.521c-2.09,9.316-5.985,17.386-17.875,18.694C842.311,733.593,845.765,727.254,849.22,720.91z"
			/>
		<path fill-rule="evenodd" clip-rule="evenodd" fill="#775656" d="M757.083,724.107c-8.747,10.501-9.364,22.111-11.13,33.299
			c-0.521,3.305-0.29,7.469-4.547,7.218c-2.042-0.12-4.161-3.55-5.732-5.833c-1.803-2.625-3.038-5.641-5.271-9.934
			c-8.501,7.698-16.192,14.9-24.186,21.75c-2.223,1.904-5.335,2.768-8.041,4.11c-1.024-2.895-3.155-5.894-2.89-8.665
			c1.455-15.163,6.099-29.481,13.507-44.103c-3.362,0.257-6.084,0.881-8.678,0.542c-2.365-0.312-5.798-1.11-6.538-2.719
			c-0.713-1.549,0.749-5.259,2.403-6.549c9.173-7.141,18.69-13.841,28.106-20.672c1.593-1.152,3.26-2.202,5.551-3.741
			c-1.898-0.992-3.324-1.377-4.227-2.28c-2.563-2.576-6.507-5.111-6.99-8.126c-0.812-5.088,4.558-6.376,8.363-7.22
			c7.746-1.712,15.651-2.689,23.497-3.938c1.565-0.247,3.159-0.346,4.784-0.521c-2.714-8.606-0.661-11.759,8.126-11.471
			c5.032,0.162,10.169,1.177,15,2.656c8.592,2.633,17.247,5.352,25.385,9.098c6.642,3.057,12.566,7.666,19.647,12.114
			c-14.31,7.931-20.792,20.559-27.144,33.4c-1.003,2.026-3.756,4.124-5.886,4.342c-1.509,0.152-3.604-2.618-4.943-4.442
			c-1.61-2.201-2.702-4.787-4.017-7.203c-0.77-0.076-1.538-0.15-2.309-0.222c-2.654,7.324-5.393,14.618-7.903,21.992
			c-0.576,1.691,0.003,3.783-0.61,5.447c-1.023,2.785-2.58,5.375-3.911,8.048c-1.843-2.365-3.954-4.576-5.453-7.139
			C759.543,730.773,758.652,727.847,757.083,724.107z M707.848,712.592c13.155,5.47,13.129,5.451,6.647,16.32
			c-5.38,9.024-7.917,18.949-9.852,30.452c5.881-4.69,10.653-8.699,15.649-12.403c2.922-2.164,6.07-5.026,9.361-5.401
			c3.165-0.357,6.648,2.085,10.144,3.354c2.34-6.449,4.209-14.075,7.758-20.817c5.314-10.096,8.417-10.328,16.508-3.621
			c3.951-7.013,7.578-14.325,12.049-21.08c3.131-4.731,7.097-4.174,10.104,0.688c1.32,2.135,2.38,4.433,3.5,6.546
			c6.212-8.842,11.985-17.053,17.761-25.271c-0.044-0.029-0.359-0.41-0.685-0.416c-1.011-0.024-2.049-0.005-3.042,0.173
			c-22.728,4.143-42.961,13.058-58.174,31.128c-6.435,7.64-12.318,15.743-18.615,23.505c-0.999,1.232-2.861,1.771-4.323,2.631
			c-0.463-1.371-1.667-3.021-1.273-4.071c4.147-11.056,8.073-22.072,16.341-31.198c11.582-12.784,25.604-21.39,41.468-27.445
			c2.906-1.108,5.851-2.122,10.074-3.649c-6.514-2.362-11.428-4.146-16.51-5.987c0.786,8.123-0.92,9.537-9.046,9.802
			c-9.365,0.303-18.715,1.206-28.062,1.97c-1.181,0.096-2.301,0.922-4.154,1.709c1.811,0.8,2.912,1.015,3.633,1.651
			c2.74,2.422,5.358,4.986,8.022,7.496c-2.441,2.158-4.663,4.655-7.366,6.414C726.942,700.813,717.939,706.289,707.848,712.592z"/>
		<path fill-rule="evenodd" clip-rule="evenodd" fill="#775656" d="M986.133,731.057c0.222,1.514,0.518,3.922,0.939,6.31
			c1.561,8.829-1.213,11.451-9.359,8.344c-10.099-3.853-20.054-8.084-30.082-12.122c-1.097-0.443-2.271-0.697-3.864-1.177
			c-0.758,2.093-1.467,3.926-2.09,5.787c-2.328,6.932-6.508,8.681-11.794,3.746c-4.999-4.667-8.787-10.629-13.117-16.013
			c-1.01-1.259-2.07-2.482-3.509-4.201c-0.963,1.362-1.58,2.546-2.483,3.442c-1.604,1.59-3.38,3.003-5.085,4.493
			c-1.415-1.787-3.592-3.377-4.115-5.395c-2.976-11.473-5.738-23.004-8.171-34.601c-0.863-4.108-2.596-6.813-6.169-9.108
			c-1.931-1.242-2.654-4.363-3.922-6.636c2.634-0.421,5.714-1.94,7.831-1.083c17.109,6.928,31.234-0.009,44.826-9.223
			c4.023-2.727,7.11-2.158,7.772,2.796c0.502,3.758-0.001,7.649-0.074,12.511c4.673-2.095,8.816-4.214,13.15-5.81
			c3.013-1.109,6.287-1.494,9.445-2.201c0.358,2.87,0.887,5.734,1.019,8.616c0.101,2.219-0.296,4.457-0.609,8.415
			c7.168-2.77,13.556-5.049,19.771-7.729c2.782-1.198,5.079-3.513,7.856-4.729c1.835-0.803,5.098-1.477,5.995-0.545
			c1.35,1.401,2.096,4.546,1.492,6.438c-1.329,4.173-3.663,8.026-5.757,12.367c7.599,1.184,15.196,2.367,22.791,3.543
			c1.208,0.187,2.596,0.023,3.6,0.573c2.522,1.384,4.872,3.079,7.291,4.649c-1.554,2.166-2.643,5.12-4.744,6.368
			C1012.357,716.377,999.514,723.479,986.133,731.057z M988.689,709.373c-0.07,0.577-0.14,1.154-0.211,1.732
			c-0.717,0.604-1.338,1.478-2.163,1.771c-9.98,3.562-20.189,5.313-30.657,2.625c-18.349-4.714-36.463-10.089-53.16-21.392
			c1.686,7.272,3.179,13.715,4.753,20.504c6.517-3.192,10.578-1.108,14.037,4.055c3.682,5.504,7.931,10.632,12.423,16.567
			c0.958-2.113,1.573-3.316,2.062-4.569c3.002-7.716,4.568-8.457,12.288-5.588c1.715,0.641,3.311,1.605,5.029,2.241
			c7.951,2.929,15.926,5.794,24.041,8.739c0.014-11.966,0.166-11.632,11.138-16.632c7.896-3.6,15.321-8.234,22.96-12.406
			c-5.18-2.018-10.067-2.262-14.76-3.345c-3.858-0.892-8.373-1.921-10.898-4.532c-1.63-1.688-0.196-6.34-0.14-9.348
			c-4.721,1.162-9.785,2.897-14.986,3.578c-8.292,1.078-10.486-1.115-10.837-9.344c-0.037-0.919-0.348-1.831-0.353-1.857
			c-7.334,1.495-14.181,3.29-21.145,4.159c-3.935,0.489-6.05-2.027-4.81-6.325c0.363-1.254,0.628-2.536,0.988-4.009
			c-9.436,2.87-18.284,5.564-29.093,8.849C931.398,702.232,959.206,708.397,988.689,709.373z"/>
		<path fill-rule="evenodd" clip-rule="evenodd" fill="#775656" d="M840.85,667.512c0.044-0.776,0.124-1.18,0.078-1.567
			c-0.996-8.54-0.387-16.597,8.106-21.388c7.2-4.061,19.775-2.405,26.067,3.009c6.281,5.401,10.646,17.625,7.193,24.523
			c-2.341,4.673-2.285,8.736-2.271,13.561c0.028,8.951-8.368,14.153-17.286,11.887c-1.849-0.469-4.452-0.239-6.005,0.76
			c-9.731,6.256-20.845,4.729-25.579-3.823C825.5,684.261,829.55,672.715,840.85,667.512z M872.657,668.712
			c1.138-3.259,0.161-8.685-3.715-11.89c-3.179-2.627-8.313-3.736-12.599-3.789c-1.895-0.023-5.543,4.346-5.399,6.522
			c0.284,4.273,2.542,8.459,4.317,12.534c0.251,0.577,2.462,0.69,3.62,0.413C863.026,671.514,867.106,670.267,872.657,668.712z
			 M851.214,690.87c-0.477-2.614-0.294-5.181-1.419-6.888c-1.445-2.193-3.938-3.699-5.979-5.502
			c-1.44,1.909-3.848,3.676-4.149,5.751C838.697,690.922,844.114,694.018,851.214,690.87z M862.935,691.776
			c3.448-1.765,6.638-2.323,7.463-4.028c1.992-4.111-1.483-6.839-4.683-7.428c-2.136-0.395-4.813,2.129-7.249,3.347
			C859.713,685.93,860.96,688.191,862.935,691.776z"/>
	</g>
	<g>
		<path fill-rule="evenodd" clip-rule="evenodd" fill="#775656" d="M135.722,68.287c12.498-5.005,25.886-1.826,39.191,1.96
			c25.445,7.24,42.814,22.357,46.907,49.655c2.805,18.73-2.141,36.097-12.193,51.667c-6.789,10.515-13.87,21.741-23.466,29.28
			c-8.056,6.328-19.684,9.606-30.174,11.094c-47.227,6.694-75.233-34.42-75.921-69.342C79.315,104.345,96.971,80.466,135.722,68.287
			z M174.137,191.25c0.751-0.015,1.506-0.025,2.262-0.039c10.74-11.878,21.128-23.92,27.219-39.154
			c8.867-22.178,4.246-53.658-27.108-65.186c-29.282-10.767-53.359-3.17-72.524,18.028c-9.222,10.193-9.634,23.212-9.734,37.143
			c3.329-3.668,5.806-6.4,8.999-9.918c-4.035,33.284-2.05,44.742,8.511,51.417c-1.55-23.667-1.289-27.093,2.804-36.627
			c5.701-13.271,18.548-24.944,26.243-23.45c-0.361,1.062-0.585,2.136-1.073,3.075c-4.738,9.119-10.079,17.972-14.155,27.375
			c-6.345,14.63-2.365,31.243,9.367,42.078c1.646,1.521,4.056,2.212,5.893,3.17c-0.817-8.297-2.884-16.033-2.012-23.419
			c1.455-12.325,5.846-24.011,14.024-33.776c1.08-1.289,3.195-1.711,4.83-2.532c0.205,1.803,0.978,3.77,0.517,5.386
			c-2.871,10.104-6.544,20.011-8.85,30.232c-1.1,4.865-0.712,10.542,0.642,15.393c2.813,10.072,7.11,11.202,17.013,5.282
			c-4-9.912-5.544-19.822,4.574-28.592C172.431,175.175,173.285,183.211,174.137,191.25z"/>
		<path fill-rule="evenodd" clip-rule="evenodd" fill="#775656" d="M256.965,129.688c1.377-15.237-5.44-26.324-10.931-37.751
			c-1.622-3.375-4.485-7.063-0.404-9.541c1.958-1.188,6.089,0.622,8.99,1.727c3.33,1.271,6.387,3.264,11.173,5.795
			c2.934-12.499,5.437-24.024,8.44-35.418c0.837-3.169,3.155-5.945,4.792-8.901c2.783,2.015,6.656,3.422,8.174,6.143
			c8.306,14.889,13.137,31.033,15.616,49.212c2.935-2.375,5.045-4.681,7.65-6.019c2.376-1.218,6.046-2.666,7.75-1.657
			c1.642,0.974,2.657,5.322,1.952,7.561c-3.904,12.412-8.409,24.638-12.734,36.919c-0.734,2.077-1.602,4.102-2.732,6.978
			c2.38-0.293,3.936-0.846,5.343-0.588c4,0.741,9.245,0.569,11.607,3.038c3.982,4.167-0.143,8.773-3.109,11.969
			c-6.045,6.504-12.704,12.435-19.138,18.575c-1.284,1.225-2.688,2.329-4.073,3.523c7.974,6.201,8.086,10.411-0.189,15.738
			c-4.739,3.051-10.117,5.385-15.507,7.097c-9.587,3.041-19.292,6.042-29.167,7.77c-8.062,1.409-16.453,0.933-25.804,1.339
			c8.134-16.407,6.07-32.162,3.752-48.029c-0.365-2.505,0.834-6.189,2.659-7.744c1.291-1.101,4.983,0.118,7.379,0.947
			c2.883,1.002,5.533,2.69,8.281,4.08c0.757-0.421,1.512-0.842,2.268-1.265c-2.213-8.435-4.333-16.895-6.711-25.285
			c-0.545-1.923-2.41-3.481-2.904-5.404c-0.83-3.217-1.043-6.594-1.518-9.902c3.203,1.006,6.553,1.7,9.567,3.106
			C250.457,125.115,253.141,127.243,256.965,129.688z M309.642,108.973c-15.597,3.331-15.562,3.331-16.506-10.803
			c-0.786-11.735-4.763-22.489-10.3-34.315c-2.434,8.062-4.277,14.79-6.523,21.381c-1.313,3.851-2.393,8.491-5.185,10.929
			c-2.687,2.344-7.451,2.308-11.477,3.365c1.949,7.43,5.077,15.641,6.097,24.107c1.528,12.68-1.182,14.87-12.902,13.84
			c0.821,8.972,2.133,18.015,2.312,27.082c0.126,6.35-3.882,8.358-9.745,5.795c-2.574-1.129-5.012-2.569-7.388-3.806
			c-0.097,12.099-0.19,23.333-0.282,34.575c0.058-0.001,0.591,0.151,0.895-0.051c0.945-0.622,1.892-1.298,2.692-2.095
			c18.297-18.274,31.264-39.359,33.781-65.681c1.066-11.13,1.331-22.337,2.192-33.49c0.136-1.772,1.508-3.453,2.307-5.174
			c1.3,0.969,3.458,1.723,3.764,2.939c3.214,12.821,6.606,25.467,4.795,39.131c-2.534,19.143-9.976,35.992-20.738,51.661
			c-1.971,2.872-4.039,5.678-6.956,9.771c7.5-1.967,13.161-3.453,19.014-4.989c-5.89-6.981-5.218-9.369,2.097-14.783
			c8.435-6.238,16.474-13.019,24.596-19.668c1.026-0.84,1.532-2.312,2.739-4.219c-2.178,0.415-3.327,0.92-4.397,0.791
			c-4.065-0.488-8.107-1.18-12.157-1.799c0.875-3.541,1.332-7.254,2.705-10.593C299.546,131.967,304.354,121.196,309.642,108.973z"
			/>
		<path fill-rule="evenodd" clip-rule="evenodd" fill="#775656" d="M67.638,265.698c-0.873-0.938-2.225-2.455-3.651-3.899
			c-5.275-5.341-4.613-8.466,2.478-10.201c8.79-2.152,17.661-3.974,26.491-5.963c0.967-0.218,1.898-0.602,3.222-1.03
			c-0.473-1.801-0.858-3.402-1.313-4.981c-1.695-5.882,0.352-9.076,6.342-8.191c5.664,0.835,11.11,3.141,16.654,4.789
			c1.294,0.387,2.606,0.726,4.415,1.225c0.016-1.398-0.123-2.507,0.073-3.553c0.348-1.859,0.9-3.678,1.366-5.516
			c1.825,0.559,4.081,0.618,5.403,1.758c7.506,6.487,14.897,13.117,22.092,19.948c2.548,2.419,5.029,3.458,8.582,3.339
			c1.921-0.063,3.904,1.743,5.86,2.705c-1.616,1.543-3.012,4.056-4.88,4.471c-15.083,3.371-21.511,14.87-26.49,27.684
			c-1.475,3.792-3.872,4.869-6.686,1.771c-2.133-2.351-3.639-5.27-5.902-8.653c-2.221,3.667-4.067,7.098-6.295,10.259
			c-1.547,2.197-3.62,4.02-5.459,6.011c-1.611-1.809-3.339-3.529-4.801-5.453c-1.125-1.479-1.916-3.21-3.583-6.085
			c-3.62,5.318-6.937,9.93-9.941,14.732c-1.346,2.149-1.828,4.836-3.163,6.996c-0.882,1.425-2.81,3.443-3.871,3.228
			c-1.597-0.324-3.607-2.135-4.091-3.724c-1.071-3.508-1.295-7.274-1.918-11.261c-5.798,2.802-11.595,5.602-17.387,8.405
			c-0.92,0.446-1.799,1.217-2.752,1.317c-2.397,0.247-4.821,0.196-7.235,0.267c0.04-2.233-0.616-4.785,0.239-6.645
			C56.557,288.29,62.025,277.286,67.638,265.698z M76.194,281.853c-0.227-0.433-0.453-0.864-0.679-1.295
			c0.206-0.756,0.219-1.653,0.647-2.249c5.182-7.203,11.38-13.267,19.871-16.395c14.884-5.484,29.919-10.401,46.8-10.56
			c-4.622-4.208-8.717-7.936-13.031-11.863c-2.971,5.301-6.761,5.797-11.601,3.887c-5.155-2.041-10.521-3.55-16.439-5.503
			c0.345,1.912,0.494,3.033,0.754,4.129c1.602,6.743,0.875,8-5.808,9.696c-1.485,0.375-3.044,0.469-4.529,0.849
			c-6.871,1.765-13.729,3.586-20.72,5.419c5.683,8.249,5.42,8.092,0.241,16.756c-3.727,6.238-6.637,12.963-9.913,19.472
			c4.528-1.076,8.01-3.233,11.759-4.72c3.082-1.222,6.682-2.66,9.664-2.063c1.925,0.387,3.151,4.274,4.545,6.373
			c2.699-3.047,5.362-6.653,8.62-9.595c5.2-4.688,7.755-4.222,11.912,1.28c0.464,0.618,1.11,1.098,1.126,1.113
			c4.341-4.521,8.204-9.015,12.587-12.926c2.478-2.208,5.132-1.483,6.324,2.069c0.346,1.036,0.772,2.046,1.226,3.232
			c5.134-6.468,9.949-12.534,15.832-19.939C119.057,259.511,96.968,268.496,76.194,281.853z"/>
		<path fill-rule="evenodd" clip-rule="evenodd" fill="#775656" d="M215.816,235.109c0.454,0.741,0.637,1.165,0.925,1.493
			c6.35,7.23,10.914,15.038,6.14,24.854c-4.049,8.321-16.685,14.798-25.922,13.815c-9.222-0.98-21.021-9.462-22.228-18.013
			c-0.818-5.793-3.452-9.5-6.536-13.936c-5.72-8.227-1.296-18.358,8.359-21.944c2.002-0.745,4.254-2.613,5.049-4.52
			c4.981-11.954,16.19-17.617,25.99-12.753C219.298,209.916,222.914,223.127,215.816,235.109z M185.757,254.237
			c1.024,3.723,5.375,8.103,10.985,8.589c4.6,0.397,10.032-1.848,14.013-4.527c1.761-1.184,2.341-7.529,0.825-9.443
			c-2.981-3.754-7.723-6.174-11.952-8.797c-0.598-0.371-2.707,0.932-3.596,1.923C192.845,245.528,189.88,249.273,185.757,254.237z
			 M191.409,220.186c2.103,2.105,3.567,4.584,5.689,5.441c2.727,1.102,5.981,0.903,9.009,1.264c0.113-2.674,1.206-5.834,0.163-7.936
			C202.904,212.177,195.948,212.771,191.409,220.186z M180.039,226.808c-2.054,3.819-4.636,6.364-4.312,8.458
			c0.781,5.054,5.718,5.356,9.038,3.864c2.219-0.996,3.08-5.024,4.547-7.694C186.725,230.144,184.137,228.854,180.039,226.808z"/>
	</g>
	<g>
		<path fill-rule="evenodd" clip-rule="evenodd" fill="#775656" d="M411.952,448.693c-1.8-5.963-4.066-11.018-4.731-16.278
			c-0.898-7.092,3.026-12.127,9.51-15.339c1.839-0.911,3.223-3.131,4.344-5.03c3.712-6.272,7.189-12.683,10.809-19.01
			c0.548-0.958,1.563-1.662,2.048-2.64c7.158-14.424,13.548-29.284,21.602-43.185c6.607-11.406,13.876-22.564,25.116-30.639
			c6.803-4.886,14.093-7.239,21.933-8.862c12.008-2.486,24.23-4.22,36.103-0.469c8.058,2.545,15.58,6.846,23.244,10.564
			c13.855,6.721,23.474,18.474,33.572,29.439c3.535,3.838,3.898,10.632,7.485,14.378c3.41,3.56,9.781,4.12,13.728,7.364
			c13.497,11.102,15.125,27.691,4.627,41.683c-8.063,10.744-17.308,19.512-32.113,17.542c-1.511,4.208-3.072,8.017-4.176,11.956
			c-0.325,1.155,0.36,2.865,1.086,3.997c4.023,6.278,7.667,12.453,2.429,19.938c-0.566,0.807,0.328,2.749,0.737,4.105
			c3.859,12.758,4.435,25.411-1.27,37.825c-0.863,1.879-1.773,4.229-3.369,5.192c-6.104,3.683-5.592,9.014-4.671,14.811
			c1.189,7.485,2.496,14.998,2.948,22.543c0.404,6.762,0.337,13.682-0.668,20.358c-0.919,6.112-5.927,9.351-11.407,11.784
			c-1.6,0.709-3.371,2.407-3.867,4.022c-5.248,17.009-15.34,24.884-33.179,24.562c-5.781-0.104-11.518-2.023-17.299-2.969
			c-1.532-0.25-3.529-0.561-4.67,0.166c-10.812,6.896-22.914,6.521-34.826,5.842c-12.099-0.689-23.097-4.473-30.568-15.161
			c-0.704-1.008-3.426-1.188-5.042-0.88c-12.081,2.33-35.522-10.03-39.101-21.787c-1.246-4.096-1.351-8.526-2.308-12.729
			c-0.44-1.936-1.654-3.703-2.564-5.523c-2.043-4.09-5.379-8.026-5.852-12.285c-0.563-5.082,0.445-10.771,2.315-15.601
			c3.897-10.053,8.647-19.789,13.392-29.488c1.743-3.563,2.395-5.729-1.72-8.272c-4.393-2.715-5.368-7.602-4.785-12.648
			C402.077,466.818,405.296,456.42,411.952,448.693z M459.057,502.631c-7.172,1.566-13.964,3.441-20.886,4.402
			c-3.604,0.498-7.544-0.185-11.128-1.122c-3.579-0.937-4.578-4.567-1.753-6.462c5.854-3.924,4.599-10.346,6.981-15.392
			c4.419-9.356-0.513-16.869-3.833-24.586c-2.63-6.113-8.178-6.241-10.964-0.282c-2.615,5.597-4.156,11.736-5.741,17.75
			c-0.45,1.71,0.165,4.104,1.171,5.591c0.394,0.582,3.199-0.717,4.904-0.709c2.244,0.013,5.102-0.253,6.533,0.966
			c1.129,0.964,1.295,4.343,0.533,6.042c-6.195,13.831-12.872,27.445-19.021,41.296c-1.745,3.926-2.599,8.363-3.121,12.653
			c-0.213,1.748,1.086,4.845,2.482,5.415c5.337,2.189,5.58,6.093,5.861,11.037c0.291,5.079,0.726,11.724,3.895,14.752
			c7.921,7.57,17.139,14.351,29.553,9.988c3.813-1.343,7.662-0.905,9.656,2.617c5.763,10.169,15.316,12.714,25.675,12.848
			c9.59,0.127,19.428,0.478,27.746-6.197c3.946-3.169,8.388-2.479,12.845-0.114c8.773,4.657,17.835,3.612,26.342-0.433
			c6.208-2.949,6.713-9.442,7.557-15.6c0.65-4.743,2.955-9.136,8.617-8.935c6.342,0.227,8.553-2.712,8.328-8.514
			c-0.111-2.836,0.096-5.693-0.185-8.51c-1.451-14.536-3.204-29.051-4.365-43.611c-0.207-2.598,1.188-6.206,3.121-7.787
			c1.316-1.076,4.856,0.566,8.005,1.093c4.193-8.248,3.318-17.483,1.676-26.655c-0.186-1.036-3.213-2.345-4.811-2.207
			c-5.556,0.48-10.248,6.808-10.614,12.857c-0.645,10.611-1.6,21.205-2.449,31.804c-0.267,3.325-0.519,6.657-0.967,9.958
			c-0.239,1.754-0.365,4.232-1.482,4.981c-1.436,0.962-4.3,1.337-5.692,0.516c-3.389-2-6.375-4.734-9.355-7.362
			c-4.802-4.234-9.469-8.623-14.387-13.123c-4.568,10.727-16.677,17.604-29.715,17.451
			C479.822,528.81,466.195,520.126,459.057,502.631z M552.289,515.922c0.198-1.886,0.368-3.169,0.462-4.456
			c1.728-23.25,0.427-46.271-4.757-69.059c-1.225-5.387-4.582-9.203-9.755-7.758c-11.082,3.098-19.095-1.618-26.927-8.311
			c-1.463-1.25-4.024-1.611-6.099-1.666c-4.889-0.129-10.082,1.268-14.621,0.059c-7.507-2-14.573-1.77-21.354,1.354
			c-4.298,1.981-10.289,4.451-11.574,8.093c-5.667,16.064-9.909,32.631-14.645,49.025c-0.906,3.133-1.707,6.298-2.555,9.447
			c0.435,0.521,0.868,1.039,1.301,1.56c8.19-3.187,16.302-6.597,24.614-9.421c2.554-0.867,5.653-0.128,8.503-0.124
			c-0.724,2.478-0.721,5.673-2.314,7.294c-4.117,4.182-3.283,8.23-0.775,12.393c6.74,11.182,23.368,17.315,36.038,13.468
			c12.196-3.704,13.91-7.716,9.291-19.726c-0.777-2.021,0.719-4.918,1.166-7.41c2.309,1.061,4.844,1.808,6.871,3.262
			c2.763,1.98,5.041,4.625,7.712,6.752c2.368,1.882,5.102,3.303,7.469,5.186C544.301,509.029,548.096,512.381,552.289,515.922z
			 M449.567,379.06c17.266-7.897,33.891-10.695,51.413-3.592c1.69,0.685,3.969,1.841,5.274,1.246
			c9.078-4.145,18.424-2.632,27.541-1.205c10.167,1.59,19.188,5.747,25.042,15.125c1.754,2.809,4.815,4.798,7.279,7.163
			c0.663-0.477,1.324-0.953,1.984-1.43c-2.277-8.76-4.585-17.513-6.821-26.283c-1.445-5.665-3.057-11.311-4.014-17.061
			c-0.313-1.875,1.201-4.054,1.88-6.096c1.805,1.118,4.212,1.829,5.294,3.434c2.522,3.737,4.61,7.813,6.492,11.925
			c1.685,3.678,2.859,7.589,4.043,10.81c2.615-1.818,4.958-3.412,7.264-5.059c6.354-4.544,6.939-7.222,1.559-13.347
			c-7.978-9.079-15.956-18.097-26.493-24.65c-13.787-8.575-27.86-13.956-44.614-11.954c-14.764,1.764-27.446,6.806-36.018,19.076
			C467.15,350.788,458.562,365.065,449.567,379.06z M563.215,465.005c4.004-1.399,6.81-2.545,9.711-3.352
			c4.261-1.186,5.715-4.097,3.459-7.92c-0.941-1.596-2.421-2.9-3.771-4.219c-4-3.904-4.294-8.197-1.584-12.918
			c4.762-8.302,4.925-12.429-1.535-19.435c-3.981-4.317-9.583-7.122-14.379-10.712c-2.339-1.751-5.828-3.366-6.492-5.698
			c-2.102-7.379-7.661-10.712-13.956-12.023c-8.455-1.762-17.333-5.154-25.708,1.381c-1.347,1.053-5.065,0.589-6.747-0.555
			c-11.346-7.72-23.523-7.469-36.19-4.773c-5.428,1.154-9.546,3.668-11.583,8.96c-1.44,3.739-4.107,4.617-7.961,5.042
			c-3.238,0.357-7.392,1.925-9.118,4.379c-2.946,4.189-5.069,9.333-6.127,14.372c-1.11,5.283-2.593,8.975-8.614,9.359
			c-3.553,0.227-5.5,2.969-4.449,5.914c1.465,4.107,3.489,8.505,6.559,11.426c4.269,4.061,9.728,6.868,14.397,10.026
			c2.57-6.454,5.623-14.124,8.584-21.56c-2.375-1.521-5.227-2.779-7.315-4.82c-2.801-2.74-4.994-6.37-1.665-10.032
			c3.05-3.354,5.945-1.166,8.975,0.95c3.516,2.456,6.698,1.583,10.774-0.611c6.749-3.63,14.429-5.578,21.814-7.927
			c1.132-0.359,2.755,1.255,4.209,1.411c6.311,0.678,12.861,2.402,18.908,1.348c5.905-1.027,10.29-0.792,14.424,3.563
			c1.684,1.773,3.834,3.105,5.784,4.625c3.41,2.663,6.934,3.328,11.165,1.62c2.093-0.843,4.755-0.613,7.11-0.383
			c4.954,0.488,9.9,1.149,14.796,2.041c2.2,0.401,4.903,1.003,6.15,2.521c0.687,0.839-1.089,3.795-1.9,5.737
			c-0.677,1.622-2.415,3.275-2.217,4.713C559.982,446.603,561.647,455.698,563.215,465.005z M588.939,414.476
			c10.658,0.776,21.029-6.983,23.809-17.811c3.221-12.547-5.991-22.614-18.704-20.436c-8.504,1.456-16.321,11.644-15.448,20.086
			c0.274,2.641,0.531,5.292,0.642,7.943C579.482,410.071,583.219,414.059,588.939,414.476z"/>
		<path fill-rule="evenodd" clip-rule="evenodd" fill="#775656" d="M505.149,559.247c-3.687-1.857-9.958-5.252-16.446-8.152
			c-2.28-1.021-5.431-1.793-7.62-1.04c-15.493,5.325-29.212,1.358-41.95-7.567c-2.513-1.761-4.634-4.671-5.831-7.515
			c-0.815-1.936,0.294-4.682,0.544-7.064c2.203,0.498,5.199,0.256,6.475,1.623c6.222,6.652,14.013,10.123,22.702,10.537
			c5.836,0.278,11.904-1.139,17.632-2.678c4.672-1.257,8.273-1.571,12.678,1.504c11.015,7.695,22.63,11.041,34.438,1.018
			c1.109-0.941,2.794-1.917,4.087-1.771c2.56,0.285,5.917,0.636,7.262,2.311c1.085,1.352,0.605,5.463-0.73,7.017
			C530.585,556.55,520.471,560.478,505.149,559.247z"/>
		<path fill-rule="evenodd" clip-rule="evenodd" fill="#775656" d="M529.247,460.435c0.997-4.118,1.442-7.962,2.955-11.326
			c0.717-1.59,3.499-3.114,5.31-3.075c1.437,0.029,3.967,2.427,4.04,3.875c0.438,8.62,0.64,17.292,0.061,25.89
			c-0.112,1.651-4.007,4.102-6.251,4.207c-1.683,0.08-4.671-2.782-5.054-4.733C529.34,470.336,529.512,465.178,529.247,460.435z"/>
		<path fill-rule="evenodd" clip-rule="evenodd" fill="#775656" d="M456.109,458.417c2.479-5.225,4.685-10.61,7.604-15.578
			c0.887-1.509,4.164-2.986,5.599-2.456c1.827,0.674,4.339,3.681,4.046,5.203c-1.629,8.48-3.833,16.872-6.344,25.142
			c-0.382,1.251-3.826,2.779-5.097,2.273c-1.962-0.779-4.095-2.972-4.66-4.984c-0.79-2.814-0.204-6.012-0.207-9.047
			C456.737,458.784,456.423,458.599,456.109,458.417z"/>
	</g>
	<g>
		<path fill-rule="evenodd" clip-rule="evenodd" fill="#775656" d="M327.38,614.344c-2.877-11.541,0.162-16.755,10.944-19.301
			c9.202-2.173,18.494,3.525,20.104,13.08c0.731,4.339,2.419,6.116,6.473,7.665c3.384,1.292,6.519,4.375,8.712,7.421
			c5.156,7.159,6.894,15.612,7.263,24.311c0.152,3.629-0.799,7.069-4.141,9.084c-2.469,1.485-2.639,3.385-1.439,5.494
			c1.78,3.133,3.254,6.865,5.942,8.937c2.756,2.124,6.75,3.276,10.319,3.606c12.143,1.119,22.86,4.965,31.801,13.6
			c3.199,3.088,7.265,5.267,10.883,7.935c11.475,8.455,20.791,18.436,24.477,32.822c3.417,13.333,8.516,26.264,8.465,40.354
			c-0.046,12.519-2.469,24.463-6.977,36.134c-7.763,20.108-23.888,32.096-41.325,42.604c-6.764,4.072-14.387,6.81-21.796,9.702
			c-14.896,5.82-30.06,4.765-44.976,0.289c-9.989-3.001-19.796-6.591-28.34-13.099c-5.052-3.848-10.958-6.558-16.371-9.954
			c-16.754-10.51-25.331-25.996-28.796-45.249c-3.082-17.125-2.237-33.886,1.683-50.608c0.912-3.888,2.372-7.958,4.676-11.152
			c6.291-8.719,12.591-17.572,20.014-25.289c5.003-5.201,11.683-8.972,18.045-12.629c6.146-3.532,7.49-8.82,7.417-15.051
			c-0.029-2.449-0.246-4.911-0.615-7.33c-0.129-0.845-0.799-1.977-1.525-2.305c-4.297-1.934-5.742-5.006-5.408-9.738
			c0.227-3.244-1.126-6.568-1.515-9.887c-0.708-6.047-1.449-12.104-1.754-18.176C319.327,621.746,322.154,617.352,327.38,614.344z
			 M374.954,674.527c-2.771-4.295-5.405-8.376-7.813-12.11c-9.909,2.21-20.007,4.462-30.004,6.69
			c-0.108,4.584-0.238,10.118-0.346,14.646c2.421,1.614,4.51,3.007,6.6,4.4c-1.978,1.406-3.95,2.822-5.941,4.212
			c-0.226,0.158-0.566,0.142-0.83,0.261c-11.055,4.909-22.034,9.901-29.598,20.011c-4.533,6.057-9.47,11.824-13.738,18.057
			c-2.242,3.272-4.065,7.113-4.997,10.96c-3.877,16.021-4.307,32.098-1.125,48.429c3.787,19.427,13.627,33.686,32.043,41.635
			c1.989,0.858,3.681,2.457,5.699,3.182c4.987,1.785,10.06,4.479,15.143,4.579c7.463,0.151,15.312-0.55,22.387-2.802
			c23.661-7.533,40.368-23.27,49.821-46.194c5.686-13.791,3.673-27.838-1.638-41.256c-7.845-19.813-23.814-32.59-40.324-44.765
			c-1.031-0.763-1.65-2.077-2.46-3.135c1.146-0.764,2.191-1.863,3.453-2.237c9.187-2.723,18.259-3.188,27.17,1.321
			c5.966,3.019,12.088,5.736,18.181,8.499c10.788,4.893,16.942,13.81,21.231,24.339c0.253,0.622-0.156,1.515-0.257,2.279
			c-0.355,0.384-0.708,0.77-1.063,1.152c-12.736-17.975-31.126-26.356-51.014-32.207c11.004,8.228,20.408,17.783,27.254,29.728
			c11.106,19.369,14.581,39.793,5.502,60.624c-10.103,23.188-27.371,39.563-51.636,47.69c-6.5,2.173-13.468,2.946-20.937,4.514
			c10.97,4.707,21.833,7.118,33.067,6.137c13.049-1.139,25.271-5.353,36.318-12.578c15.408-10.086,30.312-20.615,37.171-38.93
			c3.914-10.453,6.05-21.095,6.135-32.323c0.1-12.968-4.557-24.799-7.936-36.907c-1.611-5.771-3.621-12.409-7.694-16.317
			c-9.486-9.097-20.266-16.866-30.686-24.959c-1.995-1.548-4.666-2.5-7.173-3.068c-6.352-1.433-12.79-2.487-19.191-3.707
			c-5.582-1.061-10.979-2.471-14.372-7.732C372.781,675.805,373.996,675.091,374.954,674.527z M359.41,655.369
			c3.043-0.791,5.522-1.121,7.724-2.085c2.733-1.196,5.848-2.437,5.637-6.333c-0.377-6.953-2.211-13.482-6.172-19.271
			c-3.075-4.494-9.237-5.173-14.309-3.469c-3.677,1.232-8.525,1.466-12.068,0.106c-7.911-3.031-14.238,0.457-14.079,8.87
			c0.027,1.446,0.269,2.898,0.52,4.33c0.901,5.145,2.667,10.302,2.548,15.417c-0.122,5.329,2.246,6.706,6.63,7.41
			c10.718,1.721,17.171-1.895,18.332-11.07c0.385-3.037-0.628-6.282-1.187-9.401c-0.486-2.709-1.602-5.356-1.717-8.063
			c-0.063-1.461,1.385-2.989,2.152-4.483c1.257,1.136,3.316,2.086,3.642,3.449C358.954,638.713,362.855,646.461,359.41,655.369z
			 M341.503,602.355c-5.758,0.866-7.684,2.456-7.311,6.036c0.443,4.253,8.419,10.249,12.505,9.035
			c1.577-0.467,3.344-1.962,4.03-3.449C352.883,609.313,346.594,601.591,341.503,602.355z"/>
		<path fill-rule="evenodd" clip-rule="evenodd" fill="#775656" d="M337.098,756.143c-3.04,0.08-6.107,0.459-9.116,0.188
			c-16.093-1.451-19.879-17.388-14.381-27.375c3.479-6.322,8.311-10.752,15.397-13.855c5.576-2.444,9.925-4.204,15.19-0.721
			c6.527,4.318,10.831,9.909,10.87,18.218c0.036,7.543-2.357,14.173-7.776,19.202c-2.572,2.384-6.484,3.325-9.789,4.922
			C337.361,756.526,337.23,756.334,337.098,756.143z M335.314,748.511c0.064,0.168,0.127,0.337,0.189,0.502
			c2.501-0.965,5.644-1.288,7.381-3.02c4.754-4.744,6.148-10.808,4.195-17.311c-2.687-8.942-12.906-11.852-19.727-5.71
			c-1.614,1.453-3.16,3.014-4.56,4.672c-4.024,4.781-6.101,10.324-2.943,16.071c3.103,5.644,8.819,5.957,14.603,4.924
			C334.739,748.592,335.027,748.554,335.314,748.511z"/>
	</g>
	<g>
		<path fill-rule="evenodd" clip-rule="evenodd" fill="#775656" d="M323.242,278.974c1.347-5.942,2.237-11.335,3.806-16.513
			c3.724-12.289,14.926-15.665,25.239-8.15c7.975,5.814,9.99,14.043,9.897,23.356c-0.013,1.299-0.23,2.6-0.447,4.902
			c4.661,0.441,9.126,0.595,13.496,1.333c8.414,1.422,10.529,4.426,9.745,13.226c-0.776,8.675-1.407,17.198-0.353,26.046
			c1.015,8.523-0.228,17.442-1.227,26.1c-0.842,7.304-4.064,9.631-11.157,9.089c-3.768-0.287-5.277,0.964-7.457,4.548
			c-11.137,18.33-8.037,38.979-10.399,58.716c-1.366,11.417-0.147,22.631,2.056,33.897c2.504,12.801-1.928,23.617-12.197,31.249
			c-7.374,5.48-14.997,11.079-23.302,14.645c-12.45,5.342-23.771,12.097-34.327,20.679c-11.051,8.987-23.026,16.236-37.436,18.215
			c-7.885,1.081-14.641-0.833-20.458-6.164c-5.131-4.702-10.283-9.412-15.045-14.495c-7.344-7.835-8.929-17.288-5.598-27.502
			c2.833-8.689,7.62-15.924,15.7-20.581c5.742-3.31,11.108-7.313,16.842-10.638c11.73-6.802,18.915-16.904,22.574-30.172
			c7.293-26.444,12.683-53.244,15.672-80.537c0.053-0.483-0.001-0.979-0.013-2.099c-3.063-0.832-6.21-1.95-9.453-2.513
			c-7.144-1.241-10.706-4.975-10.11-12.351c0.61-7.535,1.55-15.125,3.273-22.465c1.717-7.317,3.309-14.407,1.299-21.881
			c-0.458-1.702-0.328-3.61-0.283-5.418c0.261-10.35,5.054-14.234,14.943-12.357c13.212,2.512,26.44,4.928,39.672,7.339
			C319.889,278.786,321.634,278.822,323.242,278.974z M242.174,472.646c18.466,8.87,29.852,22.434,35.92,39.855
			c10.041-6.138,20.217-12.318,30.329-18.607c0.831-0.515,1.401-1.696,1.804-2.69c3.271-8.071,5.84-16.518,9.854-24.17
			c5.225-9.966,10.496-20.18,20.564-26.356c1.027-0.629,1.633-2.695,1.728-4.138c1.186-17.949,1.838-35.946,3.549-53.84
			c0.59-6.157,3.663-12.096,5.758-18.077c0.9-2.573,2.198-5,3.719-8.393c-23.377-2.209-45.936-4.342-68.752-6.499
			c-0.197,2.089-0.541,4.035-0.54,5.979c0.011,23.368-6.187,45.659-11.136,68.212C270.483,444.366,263.068,462.404,242.174,472.646z
			 M374.236,295.666c-23.417-2.213-46.742-4.418-70.263-6.641c-0.09,2.567,0.326,5.193-0.425,7.408
			c-0.562,1.66-2.599,3.82-4.02,3.86c-1.355,0.04-3.33-2.134-3.994-3.784c-0.747-1.86-0.046-4.291-0.524-6.335
			c-0.311-1.333-1.378-3.15-2.485-3.498c-6.055-1.901-12.226-3.415-19.944-5.488c6.543,19.093-4.415,36.064-3.421,54.319
			c7.649,1.247,14.838,2.417,22.549,3.675c0.282-2.991-0.076-5.4,0.83-7.102c0.975-1.832,3.133-3.002,4.775-4.459
			c1.144,1.729,2.798,3.317,3.284,5.227c0.476,1.864-0.241,4.058-0.488,6.673c24.654,2.331,48.523,4.586,73.605,6.958
			C373.891,329.348,374.063,312.509,374.236,295.666z M217.289,501.912c0.904,2.138,1.8,6.743,4.396,9.836
			c4.347,5.182,9.58,9.658,14.843,13.904c2.224,1.796,5.702,3.555,8.204,3.067c6.999-1.366,13.825-3.791,20.616-6.12
			c1.018-0.348,2.326-2.672,2.06-3.664c-1.175-4.378-2.497-8.798-4.459-12.845c-5.998-12.382-17.214-19.112-27.889-26.345
			c-0.706-0.479-2.165-0.411-2.983,0.01C224.058,483.861,219.233,490.483,217.289,501.912z M320.121,487.834
			c0.443,0.557,0.884,1.113,1.326,1.669c6.157-4.856,12.681-9.305,18.379-14.68c6.651-6.271,7.576-15.194,3.309-24.155
			C332.457,461.298,326.824,474.915,320.121,487.834z M333.067,280.238c4.547,0.43,7.933,0.423,11.163,1.143
			c3.475,0.774,5.075-0.996,6.309-3.748c2.91-6.487-1.964-15.676-8.777-16.156c-1.366-0.096-3.737,1.055-4.118,2.174
			C335.91,268.737,334.722,274.014,333.067,280.238z"/>
		<path fill-rule="evenodd" clip-rule="evenodd" fill="#775656" d="M302.795,319.573c-1.167,1.186-2.74,4.154-4.703,4.472
			c-3.526,0.571-4.055-2.95-4.161-5.816c-0.104-2.782-0.33-5.71,0.384-8.323c0.451-1.647,2.521-3.91,3.875-3.924
			c1.356-0.013,3.437,2.195,3.921,3.836C302.875,312.406,302.571,315.334,302.795,319.573z"/>
	</g>
	<g>
		<path fill-rule="evenodd" clip-rule="evenodd" fill="#775656" d="M675.527,296.833c1.534,7.167,0.921,14.255,7.313,19.077
			c1.272,0.959,1.548,4.858,0.675,6.593c-0.877,1.741-3.92,3.686-5.74,3.447c-10.566-1.382-21.099-3.156-31.52-5.378
			c-1.922-0.409-4.505-3.449-4.547-5.324c-0.042-1.848,2.381-4.576,4.377-5.495c6.942-3.199,11.776-7.849,13.696-16.092
			c-6.009-1.371-11.727-2.646-17.43-3.984c-16.003-3.754-32.026-7.439-47.988-11.38c-3.163-0.781-6.506-2.056-8.971-4.074
			c-2.004-1.641-4.124-4.929-3.796-7.131c0.331-2.224,3.269-4.726,5.657-5.855c8.16-3.856,16.609-7.1,24.881-10.727
			c2.023-0.886,3.8-2.334,6.815-4.234c-2.857-0.843-4.681-1.127-6.266-1.897c-3.731-1.818-7.596-3.523-10.945-5.919
			c-3.226-2.31-4.399-5.846-2.709-9.807c1.664-3.901,4.98-4.516,8.717-4.27c8.141,0.536,15.601-1.684,22.457-5.908
			c2.14-1.319,3.918-3.225,5.784-4.798c-4.771-3.243-9.473-5.682-13.115-9.211c-2.002-1.94-3.507-6.073-2.822-8.547
			c0.505-1.819,4.818-3.089,7.627-3.661c6.66-1.356,13.463-1.995,20.143-3.265c2.227-0.422,4.257-1.879,6.971-3.14
			c-3.055-2.026-5.806-3.161-7.521-5.177c-1.75-2.061-3.728-5.222-3.304-7.47c0.417-2.218,3.404-4.51,5.796-5.708
			c11.06-5.547,22.319-10.69,33.459-16.08c1.088-0.527,1.844-1.744,3.371-3.247c-1.693-0.296-2.463-0.635-3.16-0.522
			c-12.944,2.091-20-5.933-15.618-18.312c1.214-3.433,1.137-5.445-1.341-8.209c-2.828-3.156-4.621-7.215-2.134-11.574
			c2.409-4.223,6.495-5.461,10.864-4.503c5.395,1.185,8.585-0.173,10.025-5.752c0.543-2.104,1.971-4.135,3.437-5.816
			c4.145-4.758,10.781-5.043,14.463,0.145c3.28,4.623,5.156,10.245,7.653,15.425c-0.493,0.37-0.985,0.74-1.477,1.11
			c2.667,0.633,5.36,1.174,7.997,1.914c7.752,2.172,10.071,8.439,4.123,13.533c-5.464,4.676-8.204,9.031-6.677,16.402
			c0.816,3.943-2.434,6.396-6.625,6.261c-2.214-0.071-4.409-0.714-7.608-1.273c1.363,2.381,2.065,4.358,3.373,5.773
			c6.881,7.454,13.688,14.997,20.95,22.066c8.576,8.35,8.285,12.903-2.971,19.47c4.822,4.126,9.337,8.088,13.972,11.901
			c1.747,1.436,3.827,2.459,5.665,3.793c7.494,5.433,6.884,13.218-1.353,17.381c-1.537,0.778-3.158,1.393-5.371,2.359
			c4.762,5.16,9.21,9.986,13.662,14.808c0.238,0.255,0.514,0.476,0.771,0.711c11.143,10.155,9.762,17.31-4.394,22.794
			c-0.786,0.303-1.549,0.671-2.908,1.264c4.698,7.095,9.128,13.933,13.725,20.655c2.028,2.97,4.244,5.838,2.229,9.573
			c-2.083,3.857-5.713,4.055-9.586,3.704c-22.819-2.066-45.646-4.071-68.468-6.094C678.611,297.054,677.406,296.975,675.527,296.833
			z M628.001,235.264c0.256,0.077,1.602,0.413,2.899,0.882c6.812,2.464,8.323,7.919,2.936,12.792
			c-5.913,5.35-12.48,9.981-18.815,14.856c-1.59,1.223-3.39,2.174-6.358,4.049c42.965,10.379,84.678,18.787,128.212,19.66
			c-4.675-7.376-9.019-14.231-12.651-19.962c-3.737,0.561-6.395,0.959-9.053,1.36c-0.216-3.126-0.936-6.326-0.49-9.353
			c0.364-2.464,1.922-4.848,3.313-7.038c2.178-3.435,4.897-4.502,8.823-2.033c3.46,2.174,7.376,3.619,11.09,5.389
			c-3.623-5.84-7.836-10.454-11.895-15.201c-4.073-4.764-8.335-9.428-11.837-14.597c-1.667-2.461-3.089-6.477-2.2-8.896
			c0.912-2.473,4.791-3.85,7.552-5.837c-1.74-1.723-4.173-3.962-6.405-6.385c-3.413-3.708-7.142-7.239-9.901-11.398
			c-3.331-5.021-1.246-9.478,4.523-11.344c0.917-0.297,1.841-0.572,3.064-0.95c-6.987-7.485-13.638-14.611-20.402-21.854
			c-9.266,5.325-18.615,10.698-28.218,16.215c0.829,0.572,1.505,1.045,2.189,1.507c7.375,4.987,7.84,10.117,0.644,15.189
			c-5.603,3.947-11.893,6.915-17.75,10.245c5.854,6.521,6.353,9.32-0.516,16.691C641.174,225.243,634.269,230.001,628.001,235.264z
			 M696.329,101.548c-4.359,7.737-5.441,17.874-18.157,14.226c6.193,6.669,6.125,7.388,1.641,13.97
			c-1.115,1.637-1.37,3.858-2.022,5.811c0.53,0.33,1.062,0.659,1.59,0.988c1.62-1.354,3.402-2.556,4.826-4.091
			c4.355-4.696,7.94-5.333,13.437-2.122c1.13,0.66,2.25,1.337,4.02,2.393c-1.076-6.644,3.179-8.848,8.241-11.405
			C698.133,119.997,697.006,111.499,696.329,101.548z"/>
		<path fill-rule="evenodd" clip-rule="evenodd" fill="#775656" d="M656.832,267.03c-9.242-1.796-13.965-8.277-12.264-16.826
			c1.925-9.669,10.102-16.123,18.511-14.61c10.115,1.819,15.831,9.694,13.961,19.237
			C675.156,264.458,667.469,269.096,656.832,267.03z M660.112,257.947c2.041-1.509,5.232-2.633,5.893-4.605
			c1.551-4.625-2.916-5.04-5.853-5.966c-3.206-1.007-4.757,0.776-5.332,3.87C654.139,254.908,656.023,256.319,660.112,257.947z"/>
		<path fill-rule="evenodd" clip-rule="evenodd" fill="#775656" d="M689.187,224.533c-8.501-1.732-12.841-7.333-11.354-14.654
			c1.681-8.284,8.549-13.823,15.463-12.472c6.373,1.246,12.443,10.568,11.054,16.973
			C702.761,221.703,696.354,225.994,689.187,224.533z"/>
	</g>
	<g>
		<path fill-rule="evenodd" clip-rule="evenodd" fill="#775656" d="M579.669,650.521c0.079-0.815,0.186-1.143,0.129-1.44
			c-2.363-12.563,2.083-17.146,14.657-14.375c2.327,0.514,4.804,3.254,5.935,5.586c1.566,3.231,1.922,7.05,2.965,11.306
			c1.195,0.053,2.891,0.112,4.585,0.209c9.998,0.576,17.792,5.342,22.084,14.101c1.865,3.804,1.433,9.164,0.799,13.643
			c-0.638,4.518-2.863,8.805-4.308,13.222c-0.896,2.737-1.987,5.481-2.381,8.309c-1.355,9.718,0.292,13.418,9.491,16.518
			c11.861,4.004,20.107,11.448,24.242,22.977c3.125,8.713,2.428,17.759-3.304,25.271c-5.226,6.854-11.845,12.626-17.274,19.345
			c-4.63,5.723-8.318,12.2-12.634,18.19c-12.685,17.604-20.554,37.34-25.827,58.314c-4.243,0.437-5.873-2.156-6.896-5.424
			c-5.77-18.462-15.027-34.782-29.379-47.98c-1.656-1.521-3.348-3.01-5.093-4.432c-9.85-8.008-19.962-15.714-29.52-24.058
			c-9.459-8.259-13.774-19.038-11.55-31.543c0.677-3.807,3.607-7.356,5.978-10.691c6.681-9.395,15.069-16.693,26.315-20.229
			c1.375-0.435,2.67-1.117,4.004-1.68c4.337-1.833,5.705-4.815,4.901-9.624c-1.591-9.507-3.198-19.089-3.655-28.694
			c-0.773-16.231,4.477-22.407,20.348-25.83C575.994,651.143,577.728,650.876,579.669,650.521z M612.314,666.178
			c0.055-0.846,0.113-1.688,0.169-2.537c-2.637-0.679-5.247-1.772-7.917-1.951c-7.547-0.502-15.122-0.572-22.68-0.909
			c-15.262-0.682-20.103,4.168-18.602,19.309c0.792,7.999,2.255,15.93,3.294,23.905c1.575,12.092-1.093,17.542-12.705,21.487
			c-11.329,3.85-19.486,11.205-26.021,20.541c-2.089,2.984-3.592,7.872-2.671,11.129c1.471,5.204,4.304,10.687,8.15,14.408
			c7.6,7.357,15.984,14.005,24.586,20.191c17.308,12.441,31.231,27.255,37.095,48.377c0.153,0.55,0.644,1.004,1.281,1.957
			c0.577-2.377,0.959-4.259,1.495-6.096c4.419-15.142,9.398-30.044,17.463-43.757c5.295-9.003,10.507-18.084,15.18-27.418
			c3.823-7.639,4.145-15.768,0.689-23.812c-0.774-1.802-1.527-3.611-2.291-5.417c6.926,2.219,10.247,7.533,11.345,13.437
			c1.091,5.875,0.238,12.111,0.238,18.314c1.275-1.693,2.75-3.554,4.116-5.487c7.561-10.689,4.127-24.941-7.785-30.241
			c-7.448-3.314-15.433-5.403-23.047-8.372c-2.751-1.072-5.73-2.599-7.567-4.789c-7.979-9.511-7.775-20.338-3.923-31.416
			c0.563-1.619,2.162-2.877,3.942-5.139c4.249,9.897-1.438,20.819,6.788,29.637c-1.493-9.937,3.644-17.391,5.801-25.638
			c1.359-5.189,0.83-10.874,1.189-17.047c-3.78,1.979-6.176,3.691-8.847,4.547c-9.919,3.175-20.017,2.421-30.082,0.688
			c-0.753-0.13-1.357-1.111-2.03-1.699c0.698-0.717,1.321-1.958,2.103-2.067c5.567-0.764,11.176-1.211,16.753-1.926
			C602.667,667.763,607.484,666.923,612.314,666.178z M593.891,652.502c0.916-9.618-0.489-11.398-7.524-9.535
			C585.926,650.549,588.215,653.45,593.891,652.502z"/>
		<path fill-rule="evenodd" clip-rule="evenodd" fill="#775656" d="M565.084,731.296c8.167-1.815,10.86,5.759,11.666,14.591
			c0.66,7.22-7.095,14.071-15.254,14.289c-7.755,0.204-13.147-4.699-13.273-12.07C548.031,736.908,553.492,731.465,565.084,731.296z
			 M564.329,738.995c-3.475-0.149-8.618,4.188-8.791,7.88c-0.178,3.745,1.437,5.706,5.282,5.801
			c4.439,0.108,9.595-3.517,9.395-7.151C570.042,742.368,569.454,738.943,564.329,738.995z"/>
	</g>
	<path fill-rule="evenodd" clip-rule="evenodd" fill="#775656" d="M262.618,603.833c0.71-0.633,1.858-1.609,2.955-2.643
		c4.051-3.822,6.358-3.279,7.525,2.01c1.449,6.558,2.65,13.171,3.976,19.754c0.146,0.721,0.415,1.418,0.71,2.407
		c1.345-0.32,2.538-0.578,3.718-0.889c4.392-1.158,6.727,0.414,5.969,4.843c-0.715,4.188-2.518,8.189-3.833,12.274
		c-0.309,0.955-0.584,1.922-0.984,3.256c1.037,0.034,1.862-0.049,2.634,0.114c1.374,0.289,2.713,0.729,4.069,1.105
		c-0.445,1.345-0.528,3.018-1.395,3.979c-4.94,5.459-9.983,10.83-15.172,16.054c-1.837,1.849-2.649,3.672-2.623,6.31
		c0.016,1.427-1.358,2.867-2.104,4.302c-1.118-1.226-2.958-2.303-3.235-3.696c-2.246-11.247-10.669-16.209-20.091-20.119
		c-2.789-1.158-3.547-2.955-1.201-4.989c1.78-1.543,3.971-2.611,6.518-4.233c-2.682-1.709-5.196-3.138-7.504-4.844
		c-1.603-1.184-2.92-2.752-4.366-4.15c1.368-1.164,2.674-2.419,4.126-3.47c1.116-0.811,2.414-1.368,4.575-2.557
		c-3.884-2.775-7.249-5.313-10.762-7.624c-1.572-1.034-3.558-1.438-5.136-2.464c-1.043-0.679-2.508-2.142-2.331-2.927
		c0.268-1.179,1.646-2.64,2.833-2.972c2.621-0.735,5.417-0.837,8.385-1.233c-1.98-4.348-3.96-8.695-5.942-13.04
		c-0.315-0.69-0.873-1.355-0.932-2.063c-0.142-1.782-0.064-3.581-0.076-5.373c1.657,0.066,3.561-0.377,4.927,0.29
		C246.044,595.231,254.115,599.474,262.618,603.833z M250.489,609.908c0.325-0.16,0.648-0.321,0.972-0.482
		c0.557,0.166,1.223,0.19,1.657,0.519c5.256,3.966,9.651,8.666,11.828,15.018c3.818,11.135,7.212,22.372,7.044,34.898
		c3.2-3.358,6.034-6.333,9.021-9.467c-3.882-2.294-4.186-5.114-2.688-8.672c1.602-3.79,2.812-7.746,4.361-12.104
		c-1.424,0.224-2.259,0.315-3.077,0.49c-5.029,1.074-5.949,0.514-7.095-4.473c-0.253-1.107-0.296-2.266-0.553-3.375
		c-1.193-5.127-2.429-10.245-3.67-15.463c-6.216,4.077-6.095,3.886-12.436-0.104c-4.564-2.87-9.505-5.143-14.278-7.683
		c0.722,3.378,2.263,5.997,3.303,8.804c0.854,2.306,1.86,5.001,1.367,7.203c-0.32,1.421-3.224,2.266-4.804,3.265
		c2.215,2.054,4.845,4.091,6.974,6.558c3.39,3.936,3,5.824-1.152,8.814c-0.465,0.334-0.833,0.807-0.844,0.816
		c3.281,3.298,6.549,6.238,9.378,9.557c1.596,1.875,1.013,3.832-1.642,4.657c-0.774,0.239-1.531,0.539-2.418,0.854
		c4.71,3.917,9.129,7.593,14.525,12.081C266.34,642.085,260.047,625.545,250.489,609.908z"/>
	<path fill-rule="evenodd" clip-rule="evenodd" fill="#775656" d="M774.491,595.267c0.092-0.962,0.271-2.482,0.372-4.011
		c0.374-5.646,2.467-6.836,6.992-3.707c5.613,3.882,11.08,7.975,16.619,11.959c0.605,0.436,1.288,0.77,2.192,1.301
		c0.78-1.168,1.489-2.185,2.154-3.232c2.468-3.898,5.294-4.342,7.792-0.521c2.362,3.611,3.788,7.837,5.634,11.787
		c0.429,0.926,0.893,1.835,1.518,3.104c0.795-0.69,1.353-1.321,2.04-1.734c1.223-0.735,2.524-1.334,3.794-1.99
		c0.598,1.308,1.693,2.61,1.713,3.928c0.097,7.479,0.056,14.965-0.196,22.44c-0.09,2.647,0.565,4.566,2.409,6.511
		c0.999,1.052,0.971,3.075,1.407,4.659c-1.68-0.141-3.794,0.33-4.964-0.517c-9.448-6.82-19.15-4.69-28.868-1.087
		c-2.877,1.066-4.685,0.252-4.344-2.885c0.258-2.379,1.15-4.689,1.926-7.658c-3.179,0.582-6.037,1.258-8.936,1.583
		c-2.014,0.228-4.076-0.03-6.12-0.071c0.213-1.813,0.318-3.65,0.673-5.436c0.27-1.374,0.85-2.688,1.638-5.067
		c-4.811,0.619-9.071,1.056-13.284,1.766c-1.885,0.317-3.642,1.388-5.526,1.715c-1.247,0.217-3.348,0.14-3.761-0.566
		c-0.614-1.063-0.598-3.104,0.056-4.172c1.443-2.359,3.456-4.369,5.389-6.716c-4.48-1.867-8.959-3.735-13.439-5.6
		c-0.711-0.296-1.586-0.406-2.12-0.893c-1.338-1.229-2.523-2.621-3.771-3.947c1.279-1.096,2.39-2.742,3.869-3.19
		C756.206,600.322,765.147,597.9,774.491,595.267z M769.662,608.175c0.13-0.343,0.26-0.688,0.39-1.03
		c0.529-0.262,1.042-0.704,1.591-0.76c6.655-0.682,13.177-0.22,19.189,3.004c10.54,5.649,20.838,11.67,29.372,21.11
		c0.061-4.712,0.113-8.887,0.171-13.284c-4.476,0.975-6.652-0.913-7.996-4.599c-1.429-3.928-3.263-7.711-5.122-12.026
		c-0.905,1.152-1.463,1.797-1.951,2.493c-3.001,4.275-4.074,4.495-8.375,1.575c-0.954-0.648-1.787-1.481-2.746-2.131
		c-4.432-2.991-8.891-5.947-13.422-8.974c-1.81,7.333-1.852,7.106-9.331,8.521c-5.382,1.018-10.632,2.741-15.941,4.151
		c2.872,2.016,5.83,2.9,8.545,4.271c2.229,1.127,4.844,2.438,5.999,4.417c0.743,1.28-0.834,3.916-1.319,5.753
		c3.069-0.002,6.436-0.305,9.726,0.061c5.244,0.587,6.26,2.263,5.237,7.359c-0.116,0.569-0.063,1.176-0.063,1.19
		c4.722,0.187,9.188,0.116,13.588,0.631c2.484,0.292,3.404,2.153,1.998,4.604c-0.412,0.714-0.767,1.459-1.209,2.308
		c6.214-0.341,12.045-0.659,19.165-1.048C803.709,621.172,787.589,613.209,769.662,608.175z"/>
</g>
<g id="vexels">
	<g opacity="0.8">
		<g>
			<path fill="#775656" d="M482.272,930.117c-1.453-0.055-2.821-0.367-4.105-0.938c-1.276-0.57-2.396-1.334-3.338-2.307
				c-0.944-0.96-1.688-2.088-2.233-3.369c-0.552-1.272-0.824-2.649-0.824-4.112v-9.73c0-0.432,0.157-0.803,0.477-1.114
				c0.313-0.317,0.688-0.476,1.122-0.476c0.466,0,0.85,0.158,1.151,0.476c0.302,0.312,0.446,0.683,0.446,1.114v9.73
				c0,0.915,0.165,1.791,0.475,2.62c0.314,0.837,0.757,1.578,1.313,2.232c0.558,0.653,1.215,1.201,1.968,1.648
				c0.75,0.448,1.558,0.761,2.443,0.923V909.66c0-0.432,0.152-0.803,0.469-1.114c0.311-0.317,0.702-0.476,1.164-0.476
				c0.442,0,0.806,0.158,1.11,0.476c0.305,0.312,0.449,0.683,0.449,1.114v18.863c0,0.443-0.145,0.818-0.449,1.127
				c-0.305,0.315-0.683,0.467-1.154,0.467H482.272z"/>
			<path fill="#775656" d="M493.257,908.193c0.875,0,1.703,0.178,2.479,0.514c0.78,0.336,1.456,0.796,2.031,1.361
				c0.574,0.579,1.026,1.255,1.377,2.029c0.343,0.777,0.51,1.594,0.51,2.467v0.774c0,0.873-0.167,1.69-0.51,2.471
				c-0.351,0.778-0.803,1.446-1.377,2.025c-0.575,0.566-1.251,1.025-2.031,1.365c-0.776,0.339-1.604,0.51-2.479,0.51h-3.235v2.033
				c0,0.876,0.311,1.628,0.94,2.253c0.629,0.629,1.382,0.941,2.258,0.941c0.707,0,1.344-0.209,1.896-0.61
				c0.568-0.415,0.953-0.956,1.178-1.643c0.136-0.429,0.39-0.749,0.783-0.957c0.38-0.201,0.791-0.231,1.225-0.097
				c0.409,0.136,0.725,0.394,0.941,0.776c0.222,0.377,0.265,0.771,0.128,1.176c-0.443,1.358-1.221,2.461-2.341,3.291
				c-1.123,0.834-2.39,1.243-3.81,1.243c-0.876,0-1.701-0.167-2.481-0.506c-0.781-0.347-1.454-0.799-2.035-1.373
				c-0.567-0.567-1.028-1.242-1.374-2.015c-0.34-0.779-0.507-1.604-0.507-2.48v-9.179c0-0.873,0.167-1.689,0.507-2.467
				c0.346-0.774,0.807-1.45,1.374-2.029c0.581-0.565,1.254-1.025,2.035-1.361C491.519,908.371,492.356,908.193,493.257,908.193z
				 M490.021,918.568h3.235c0.875,0,1.629-0.319,2.261-0.964c0.628-0.637,0.935-1.393,0.935-2.266v-0.774
				c0-0.873-0.307-1.617-0.935-2.245c-0.632-0.622-1.386-0.938-2.261-0.938c-0.9,0-1.666,0.316-2.295,0.938
				c-0.63,0.628-0.94,1.372-0.94,2.245V918.568z"/>
			<path fill="#775656" d="M511.589,914.362c0-0.219-0.019-0.381-0.042-0.493c-0.032-0.104-0.049-0.185-0.049-0.243
				c-0.104-0.517-0.381-1.011-0.82-1.467c-0.597-0.598-1.332-0.905-2.213-0.905c-0.896,0-1.639,0.308-2.212,0.905
				c-0.601,0.596-0.899,1.344-0.899,2.238v9.438c0,0.867,0.299,1.608,0.899,2.195c0.599,0.605,1.343,0.906,2.212,0.906
				c0.824,0,1.56-0.301,2.213-0.906c0.607-0.652,0.911-1.386,0.911-2.195c0-0.439,0.151-0.81,0.448-1.119
				c0.293-0.32,0.678-0.476,1.148-0.476c0.435,0,0.811,0.155,1.123,0.476c0.313,0.31,0.477,0.68,0.477,1.119
				c0,1.713-0.629,3.197-1.887,4.444c-1.23,1.23-2.711,1.837-4.434,1.837c-1.744,0-3.235-0.606-4.47-1.837
				c-1.25-1.247-1.885-2.731-1.885-4.444v-9.438c0-1.735,0.635-3.24,1.885-4.487c1.234-1.254,2.726-1.882,4.47-1.882
				c1.723,0,3.203,0.628,4.434,1.882c1.229,1.247,1.857,2.725,1.887,4.407v0.045c-0.029,0.438-0.19,0.796-0.496,1.097
				c-0.301,0.306-0.669,0.452-1.104,0.452c-0.443,0-0.816-0.146-1.135-0.452C511.744,915.158,511.589,914.8,511.589,914.362z"/>
			<path fill="#775656" d="M523.553,926.938c0.355,0.026,0.736,0.174,1.125,0.452c0.402,0.267,0.596,0.647,0.596,1.134
				c0,0.467-0.154,0.85-0.461,1.149c-0.322,0.297-0.691,0.444-1.137,0.444c-1.775,0-3.295-0.63-4.549-1.879
				c-1.26-1.25-1.881-2.744-1.881-4.495v-14.121c0-0.459,0.156-0.842,0.473-1.139c0.307-0.301,0.703-0.455,1.164-0.455
				c0.438,0,0.813,0.154,1.121,0.455c0.32,0.297,0.467,0.68,0.467,1.139v0.617h1.813c0.439,0,0.82,0.158,1.131,0.47
				c0.305,0.309,0.473,0.684,0.473,1.12c0,0.462-0.168,0.845-0.473,1.146c-0.311,0.305-0.691,0.443-1.131,0.443h-1.813v10.325
				c0,0.822,0.326,1.573,0.949,2.253C521.998,926.567,522.711,926.879,523.553,926.938z"/>
			<path fill="#775656" d="M538.805,909.91c1.258,1.247,1.887,2.735,1.887,4.452v9.474c0,1.682-0.629,3.152-1.887,4.402
				c-1.227,1.249-2.717,1.879-4.467,1.879h-0.695c-1.727,0-3.199-0.63-4.43-1.879c-1.258-1.216-1.885-2.689-1.885-4.402v-9.474
				c0-1.747,0.627-3.225,1.885-4.452c1.254-1.254,2.73-1.882,4.43-1.882h0.695C536.061,908.028,537.551,908.656,538.805,909.91z
				 M537.451,914.362c0-0.874-0.299-1.607-0.895-2.203c-0.605-0.573-1.344-0.855-2.219-0.855h-0.66c-0.84,0-1.598,0.282-2.25,0.855
				c-0.598,0.649-0.9,1.387-0.9,2.203v9.474c0,0.81,0.303,1.543,0.9,2.195c0.652,0.573,1.41,0.868,2.25,0.868h0.66
				c0.875,0,1.613-0.295,2.219-0.868c0.596-0.587,0.895-1.328,0.895-2.195V914.362z"/>
			<path fill="#775656" d="M543.277,914.362c0-1.769,0.617-3.267,1.848-4.489c1.225-1.255,2.725-1.879,4.504-1.879
				c0.443,0,0.814,0.154,1.129,0.466c0.314,0.313,0.471,0.687,0.471,1.119c0,0.524-0.197,0.915-0.592,1.169
				c-0.396,0.259-0.771,0.4-1.127,0.428c-0.85,0.051-1.564,0.37-2.131,0.946c-0.604,0.589-0.91,1.339-0.91,2.24v12.736
				c0,0.85-0.313,1.563-0.939,2.142c-0.629,0.583-1.381,0.877-2.252,0.877V914.362z"/>
		</g>
		<path fill="#775656" d="M565.6,908.024h-0.703c-1.688,0-3.166,0.625-4.414,1.875c-1.26,1.224-1.883,2.697-1.883,4.441v9.468
			c0,1.705,0.623,3.175,1.883,4.387c1.229,1.258,2.697,1.888,4.414,1.888h0.703c1.744,0,3.232-0.63,4.463-1.888
			c1.254-1.238,1.881-2.701,1.881-4.387v-9.468c0-1.706-0.627-3.192-1.881-4.441C568.805,908.649,567.32,908.024,565.6,908.024z
			 M568.705,923.809c0,0.863-0.297,1.601-0.895,2.191c-0.604,0.578-1.344,0.857-2.211,0.857h-0.658
			c-0.842,0-1.596-0.279-2.252-0.857c-0.6-0.648-0.898-1.386-0.898-2.191v-9.468c0-0.814,0.299-1.548,0.898-2.199
			c0.656-0.571,1.41-0.864,2.252-0.864h0.658c0.867,0,1.607,0.293,2.211,0.864c0.598,0.597,0.895,1.334,0.895,2.199V923.809z
			 M580.871,908.024c-1.721,0-3.207,0.625-4.465,1.875c-1.258,1.249-1.879,2.735-1.879,4.441v20.394
			c0.904,0,1.656-0.312,2.289-0.898c0.627-0.575,0.936-1.292,0.936-2.169v-1.584h3.119c1.746,0,3.232-0.63,4.459-1.888
			c1.26-1.238,1.883-2.701,1.883-4.387v-9.468c0-1.706-0.623-3.192-1.883-4.441C584.084,908.649,582.588,908.024,580.871,908.024z
			 M583.979,923.809c0,0.829-0.281,1.57-0.855,2.191c-0.66,0.578-1.4,0.857-2.252,0.857h-3.119v-12.517
			c0-0.865,0.305-1.603,0.906-2.199c0.654-0.571,1.391-0.864,2.213-0.864c0.852,0,1.592,0.293,2.252,0.864
			c0.574,0.597,0.855,1.334,0.855,2.199V923.809z M600.404,910.062c-0.57-0.575-1.248-1.022-2.029-1.366
			c-0.777-0.34-1.605-0.513-2.477-0.513c-0.902,0-1.74,0.173-2.521,0.513c-0.777,0.344-1.451,0.791-2.025,1.366
			c-0.57,0.571-1.031,1.242-1.369,2.018c-0.346,0.775-0.516,1.598-0.516,2.465v9.18c0,0.868,0.17,1.69,0.516,2.462
			c0.338,0.778,0.799,1.451,1.369,2.01c0.574,0.578,1.248,1.038,2.025,1.377c0.781,0.336,1.602,0.511,2.48,0.511
			c1.416,0,2.689-0.41,3.803-1.243c1.123-0.83,1.904-1.926,2.338-3.287c0.139-0.413,0.098-0.795-0.127-1.177
			c-0.211-0.387-0.525-0.641-0.938-0.776c-0.438-0.138-0.842-0.104-1.223,0.102c-0.385,0.204-0.646,0.524-0.781,0.96
			c-0.219,0.675-0.609,1.216-1.17,1.628c-0.563,0.408-1.191,0.61-1.902,0.61c-0.879,0-1.627-0.313-2.25-0.942
			c-0.631-0.621-0.947-1.365-0.947-2.233v-2.045h3.238c0.871,0,1.699-0.163,2.477-0.51c0.781-0.335,1.459-0.791,2.029-1.37
			c0.57-0.563,1.027-1.237,1.367-2.01c0.34-0.778,0.512-1.597,0.512-2.47v-0.775c0-0.867-0.172-1.689-0.512-2.465
			S600.975,910.633,600.404,910.062z M599.094,915.319c0,0.873-0.314,1.63-0.941,2.266c-0.629,0.637-1.383,0.961-2.254,0.961h-3.238
			v-4.002c0-0.867,0.316-1.615,0.947-2.24c0.623-0.629,1.389-0.943,2.291-0.943c0.871,0,1.625,0.314,2.254,0.943
			c0.627,0.625,0.941,1.373,0.941,2.24V915.319z M611.043,908.024c-1.09,0-2.166,0.297-3.23,0.902
			c-0.303-0.605-0.789-0.902-1.475-0.902c-0.438,0-0.805,0.158-1.113,0.485c-0.318,0.324-0.486,0.688-0.486,1.1v20.474
			c0.91,0,1.654-0.299,2.252-0.896c0.65-0.629,0.986-1.347,0.986-2.161v-12.686c0-0.846,0.287-1.563,0.857-2.154
			c0.604-0.604,1.338-0.909,2.209-0.909c0.822,0,1.564,0.293,2.217,0.864c0.604,0.597,0.906,1.334,0.906,2.199v15.742
			c0.895,0,1.648-0.299,2.244-0.896c0.629-0.603,0.947-1.324,0.947-2.161v-12.686c0-1.744-0.623-3.218-1.85-4.441
			C614.252,908.649,612.768,908.024,611.043,908.024z M637.066,918.604c-0.613-0.615-1.33-1.097-2.148-1.448
			c-0.818-0.351-1.689-0.532-2.621-0.532h-0.449c-0.768,0-1.418-0.263-1.945-0.795c-0.535-0.523-0.803-1.168-0.803-1.937
			c0-0.733,0.26-1.37,0.779-1.895c0.527-0.536,1.164-0.795,1.918-0.795c0.742,0,1.375,0.256,1.898,0.771
			c0.293,0.297,0.672,0.455,1.123,0.455c0.445,0,0.822-0.158,1.127-0.455c0.297-0.3,0.447-0.671,0.447-1.118
			c0-0.451-0.15-0.822-0.447-1.124c-0.547-0.539-1.176-0.956-1.885-1.237c-0.715-0.285-1.459-0.429-2.264-0.429
			c-0.809,0-1.572,0.15-2.283,0.443c-0.715,0.305-1.334,0.715-1.857,1.243c-0.535,0.535-0.963,1.154-1.275,1.86
			c-0.318,0.706-0.473,1.465-0.473,2.279c0,0.818,0.154,1.578,0.473,2.283c0.313,0.712,0.74,1.329,1.275,1.854
			c0.523,0.532,1.143,0.952,1.857,1.266c0.711,0.315,1.475,0.47,2.283,0.47l0.459,0.034c1.006,0,1.863,0.352,2.563,1.047
			c0.686,0.693,1.043,1.527,1.043,2.503c0,0.98-0.357,1.826-1.043,2.528c-0.699,0.71-1.541,1.064-2.521,1.064
			c-0.816,0-1.549-0.244-2.189-0.737c-0.641-0.486-1.076-1.122-1.291-1.92c-0.105-0.425-0.355-0.758-0.73-0.977
			c-0.389-0.209-0.797-0.251-1.238-0.12c-0.404,0.138-0.727,0.394-0.939,0.761c-0.215,0.37-0.27,0.764-0.162,1.191
			c0.412,1.474,1.227,2.662,2.434,3.577c1.213,0.91,2.584,1.366,4.117,1.366c0.932,0,1.803-0.178,2.621-0.537
			c0.818-0.351,1.535-0.829,2.148-1.447c0.617-0.603,1.104-1.315,1.457-2.142c0.355-0.817,0.529-1.678,0.529-2.608
			c0-0.922-0.174-1.789-0.529-2.604C638.17,919.928,637.684,919.213,637.066,918.604z M648.527,927.347
			c-0.391-0.273-0.764-0.42-1.115-0.447c-0.852-0.055-1.561-0.363-2.133-0.942c-0.631-0.675-0.943-1.424-0.943-2.233v-10.32h1.805
			c0.434,0,0.807-0.147,1.123-0.452c0.318-0.289,0.473-0.68,0.473-1.135c0-0.439-0.154-0.81-0.473-1.125
			c-0.316-0.311-0.689-0.465-1.123-0.465h-1.805v-0.617c0-0.463-0.154-0.84-0.469-1.139c-0.32-0.301-0.693-0.446-1.127-0.446
			c-0.469,0-0.852,0.146-1.162,0.446c-0.318,0.299-0.475,0.676-0.475,1.139v14.114c0,1.736,0.625,3.233,1.883,4.472
			c1.254,1.258,2.766,1.888,4.549,1.888c0.434,0,0.803-0.151,1.121-0.444c0.309-0.31,0.467-0.688,0.467-1.149
			C649.123,928.003,648.936,927.624,648.527,927.347z M658.168,908.024h-0.688c-1.686,0-3.166,0.625-4.426,1.875
			c-1.252,1.224-1.879,2.697-1.879,4.441v9.468c0,1.705,0.627,3.175,1.879,4.387c1.234,1.258,2.707,1.888,4.426,1.888h0.688
			c1.756,0,3.246-0.63,4.471-1.888c1.25-1.238,1.881-2.701,1.881-4.387v-9.468c0-1.706-0.631-3.192-1.881-4.441
			C661.383,908.649,659.896,908.024,658.168,908.024z M661.297,923.809c0,0.863-0.311,1.601-0.91,2.191
			c-0.607,0.578-1.334,0.857-2.219,0.857h-0.648c-0.836,0-1.596-0.279-2.254-0.857c-0.598-0.648-0.902-1.386-0.902-2.191v-9.468
			c0-0.814,0.305-1.548,0.902-2.199c0.658-0.571,1.418-0.864,2.254-0.864h0.648c0.885,0,1.611,0.293,2.219,0.864
			c0.6,0.597,0.91,1.334,0.91,2.199V923.809z M673.447,908.024c-1.748,0-3.232,0.625-4.463,1.875
			c-1.258,1.249-1.895,2.739-1.895,4.479v9.43c0,1.705,0.637,3.188,1.895,4.437c1.23,1.215,2.715,1.838,4.463,1.838
			c1.725,0,3.197-0.623,4.418-1.838c1.264-1.249,1.889-2.731,1.889-4.437c0-0.439-0.154-0.817-0.469-1.131
			c-0.313-0.309-0.688-0.467-1.129-0.467c-0.459,0-0.842,0.158-1.145,0.467c-0.305,0.313-0.453,0.691-0.453,1.131
			c0,0.806-0.295,1.543-0.893,2.191c-0.662,0.602-1.4,0.899-2.219,0.899c-0.879,0-1.611-0.298-2.215-0.899
			c-0.598-0.591-0.891-1.328-0.891-2.191v-9.43c0-0.895,0.293-1.641,0.891-2.237c0.578-0.6,1.309-0.898,2.215-0.898
			c0.869,0,1.604,0.299,2.219,0.898c0.428,0.455,0.701,0.948,0.805,1.461c0,0.059,0.021,0.14,0.055,0.248
			c0.023,0.107,0.033,0.273,0.033,0.49c0,0.433,0.16,0.799,0.471,1.104c0.318,0.296,0.689,0.446,1.127,0.446
			c0.441,0,0.805-0.15,1.107-0.446c0.299-0.305,0.463-0.671,0.49-1.104v-0.039c-0.027-1.687-0.656-3.153-1.889-4.402
			C676.645,908.649,675.172,908.024,673.447,908.024z M692.234,919.398c-0.379-0.405-0.799-0.748-1.266-1.022
			c0.984-1.138,1.482-2.485,1.482-4.035v-2.524c0-0.439-0.168-0.81-0.48-1.125c-0.311-0.311-0.682-0.465-1.115-0.465
			c-0.436,0-0.822,0.154-1.129,0.465c-0.322,0.315-0.467,0.686-0.467,1.125v2.524c0,0.864-0.314,1.616-0.945,2.249
			c-0.572,0.566-1.285,0.88-2.139,0.937h-0.76v-7.874c0-0.432-0.162-0.814-0.467-1.119c-0.301-0.312-0.676-0.467-1.152-0.467
			c-0.426,0-0.807,0.155-1.115,0.467c-0.313,0.305-0.465,0.688-0.465,1.119v20.431c0.873,0,1.621-0.299,2.248-0.896
			c0.625-0.603,0.951-1.313,0.951-2.127v-6.396h2.406c0.865,0.053,1.598,0.361,2.166,0.933c0.602,0.633,0.9,1.373,0.9,2.245v6.24
			c0.877,0,1.633-0.299,2.256-0.896c0.625-0.603,0.941-1.313,0.941-2.127v-3.218C694.086,922.126,693.467,920.648,692.234,919.398z"
			/>
		<g>
			<path fill="#775656" d="M357.189,927.834v-11.573c0-0.777,0.552-1.299,1.304-1.299h3.1c1.729,0,3.309,1.553,3.309,3.362v7.486
				c0,1.92-1.58,3.341-3.309,3.341h-3.1C357.682,929.151,357.189,928.523,357.189,927.834z M358.859,916.642
				c0,3.647,0.021,7.159,0.021,10.826h2.713c0.873,0,1.624-0.746,1.624-1.657v-7.47c0-0.904-0.751-1.699-1.624-1.699H358.859z"/>
			<path fill="#775656" d="M374.816,916.642l-4.77,0.034v4.37h4.563v1.679h-4.563v3.04c0,0.915,0.753,1.703,1.687,1.703h3.083v1.684
				h-3.083c-1.828,0-3.366-1.575-3.366-3.387v-9.489c0-0.772,0.665-1.313,1.36-1.313h5.089V916.642z"/>
			<path fill="#775656" d="M381.322,914.795c1.842,0,3.73,1.36,3.73,3.977h-1.665c0-1.5-1.029-2.292-2.065-2.292
				c-1.062,0-2.091,0.604-2.091,1.728v1.173c0,1.112,1.276,1.502,2.272,1.703c1.644,0.347,3.549,0.853,3.549,3.327v1.458
				c0,2.271-1.905,3.427-3.75,3.427c-1.931,0-3.733-1.356-3.712-3.993h1.641c0,1.519,1.016,2.287,2.071,2.287
				c1.03,0,2.085-0.604,2.085-1.721v-1.458c0-1.217-1.137-1.483-2.229-1.667c-1.764-0.344-3.55-0.749-3.567-3.363v-1.173
				C377.591,915.955,379.41,914.795,381.322,914.795z"/>
			<path fill="#775656" d="M388.518,929.151v-14.189h1.683v14.189H388.518z"/>
			<path fill="#775656" d="M396.994,921.145h2.676c0.77,0,1.318,0.531,1.318,1.276v3.447c0,2.252-1.907,3.409-3.832,3.409
				c-1.951,0-3.857-1.179-3.857-3.489v-7.561c0-2.296,1.869-3.454,3.815-3.454c1.908,0,3.813,1.358,3.834,4.016h-1.704
				c0-1.54-1.053-2.327-2.13-2.327c-1.098,0-2.147,0.604-2.147,1.766v7.561c0,1.176,1.096,1.801,2.189,1.801
				c1.096,0,2.132-0.604,2.151-1.721v-3.063h-2.313V921.145z"/>
			<path fill="#775656" d="M411.671,914.962v13.037c0,0.77-0.525,1.152-1.076,1.152c-0.403,0-0.952-0.285-1.153-0.727
				c-1.015-2.496-1.987-5.374-3.042-8.136c-0.365-0.972-0.771-2.938-0.951-3.469l-0.247,0.068l0.487,2.491l0.083,9.771h-1.723
				v-13.056c-0.021-0.754,0.544-1.194,1.139-1.194c0.479,0,1.091,0.301,1.188,0.809l-0.013-0.049l4.179,11.807h0.111l-0.582-2.676
				l-0.085-9.83H411.671z"/>
			<path fill="#775656" d="M421.336,916.642l-4.761,0.034v4.37h4.563v1.679h-4.563v3.04c0,0.915,0.745,1.703,1.683,1.703h3.078
				v1.684h-3.078c-1.827,0-3.367-1.575-3.367-3.387v-9.489c0-0.772,0.673-1.313,1.361-1.313h5.084V916.642z"/>
			<path fill="#775656" d="M424.603,927.834v-11.573c0-0.777,0.548-1.299,1.301-1.299h3.102c1.719,0,3.305,1.553,3.305,3.362v7.486
				c0,1.92-1.586,3.341-3.305,3.341h-3.102C425.089,929.151,424.603,928.523,424.603,927.834z M426.263,916.642
				c0,3.647,0.022,7.159,0.022,10.826h2.72c0.868,0,1.618-0.746,1.618-1.657v-7.47c0-0.904-0.75-1.699-1.618-1.699H426.263z"/>
			<path fill="#775656" d="M447.858,921.526c1.341,0.207,1.985,1.646,1.985,2.617v1.687c0,1.759-1.623,3.321-3.305,3.346h-3.083
				c-0.807,0-1.3-0.509-1.3-1.342v-11.559c0-0.792,0.493-1.313,1.3-1.313h2.82c1.784,0.019,3.349,1.436,3.349,3.362v0.712
				C449.625,919.804,449.073,921.247,447.858,921.526z M443.822,916.642v4.075h2.678c0.849,0,1.457-0.769,1.457-1.681v-0.712
				c0-0.911-0.747-1.683-1.681-1.683H443.822z M448.158,925.83v-1.687c0-0.95-0.743-1.723-1.658-1.723h-2.678v5.068h2.717
				C447.366,927.448,448.158,926.722,448.158,925.83z"/>
			<path fill="#775656" d="M456.271,923.033v6.118h-1.684v-6.159c-0.425-1.018-0.851-2.028-1.319-3.108
				c-0.647-1.456-1.521-3.527-2.086-4.922h1.782c0.592,1.334,1.766,4.463,2.293,5.775l0.186,1.097
				c0.019-0.158,0.119-0.937,0.157-1.117c0.471-1.135,1.831-4.706,2.274-5.755h1.823L456.271,923.033z"/>
		</g>
	</g>
	<g>
		<path fill="#FFFFFF" stroke="#AFAFB4" stroke-miterlimit="10" d="M1650.554,168.759h-384.92c-23.483,0-42.52,19.036-42.52,42.52
			v216.104l-81.211,11.693l81.211,7.938v210.751c0,23.482,19.036,42.52,42.52,42.52h384.92c23.482,0,42.52-19.037,42.52-42.52
			V211.279C1693.073,187.795,1674.036,168.759,1650.554,168.759z"/>
		
			<text transform="matrix(0.9686 0 0 1 1328.9502 216.749)" fill="#C19232" font-family="'Arial-BoldMT'" font-size="17.2793" letter-spacing="1.032">HOW TO USE THIS VECTOR?</text>
		<g>
			<rect x="1255.72" y="243.583" fill="none" width="415.672" height="450.288"/>
			<text transform="matrix(1 0 0 1 1255.7197 250.7441)"><tspan x="0" y="0" fill="#808080" font-family="'Arial-BoldMT'" font-size="10">This vector graphic has been designed and brought to you by VectorOpenStock.com </tspan><tspan x="0" y="15.2" fill="#808080" font-family="'Arial-BoldMT'" font-size="10">This work is given away for free. In exchange, we ask you to respect some simple </tspan><tspan x="0" y="30.4" fill="#808080" font-family="'Arial-BoldMT'" font-size="10">rules. First, the design is under Creative Commons 3.0 Attribution License, it allows </tspan><tspan x="0" y="45.6" fill="#808080" font-family="'Arial-BoldMT'" font-size="10">you to use this vector (even commercially) as long as you credit us. </tspan><tspan x="0" y="60.8" fill="#808080" font-family="'Arial-BoldMT'" font-size="10">More information can be found here: </tspan><tspan x="0" y="76" fill="#C19232" font-family="'Arial-BoldMT'" font-size="10">www.vectoropenstock.com/terms-and-conditions/</tspan><tspan x="0" y="106.4" fill="#808080" font-family="'Arial-BoldMT'" font-size="10">If you are going to repost or publish this graphic resource in your site you MUST take </tspan><tspan x="0" y="121.6" fill="#808080" font-family="'Arial-BoldMT'" font-size="10">into account the following:</tspan><tspan x="0" y="152" fill="#808080" font-family="'Arial-BoldMT'" font-size="10">-Download of the vector file (zip file) MUST be done from our site. Hosting our designs </tspan><tspan x="0" y="167.2" fill="#808080" font-family="'Arial-BoldMT'" font-size="10">in servers other than ours will be considered an infringement of our copyrights and  we </tspan><tspan x="0" y="182.4" fill="#808080" font-family="'Arial-BoldMT'" font-size="10">will take legal actions.  </tspan><tspan x="0" y="197.6" fill="#808080" font-family="'Arial-BoldMT'" font-size="10">-Keep our brand stripe in the jpg preview. Never place your logo over our design, that </tspan><tspan x="0" y="212.8" fill="#808080" font-family="'Arial-BoldMT'" font-size="10">would be considered copyright infringement.</tspan><tspan x="0" y="228" fill="#808080" font-family="'Arial-BoldMT'" font-size="10">-Place a link in your post to the vector in our site (you can easily find it at </tspan><tspan x="0" y="243.199" fill="#C19232" font-family="'Arial-BoldMT'" font-size="10">http://www.vectoropenstock.com/our-vectors</tspan><tspan x="215.034" y="243.199" fill="#808080" font-family="'Arial-BoldMT'" font-size="10">)</tspan><tspan x="218.364" y="243.199" fill="#808080" font-family="'Arial-BoldMT'" font-size="10" letter-spacing="30">	</tspan><tspan x="0" y="258.4" fill="#808080" font-family="'Arial-BoldMT'" font-size="10">-Don&apos;t copy our descriptions or keywords, come up with your own text. Copying </tspan><tspan x="0" y="273.6" fill="#808080" font-family="'Arial-BoldMT'" font-size="10">descriptions and tags can be considered copyright infringement.</tspan><tspan x="0" y="304" fill="#808080" font-family="'Arial-BoldMT'" font-size="10">If you ever find a site infringing our copyrights or violating any of the conditions stated </tspan><tspan x="0" y="319.201" fill="#808080" font-family="'Arial-BoldMT'" font-size="10">above please inform us at </tspan><tspan x="125.596" y="319.201" fill="#C19232" font-family="'Arial-BoldMT'" font-size="10">http://www.vectoropenstock.com/contact</tspan><tspan x="0" y="349.6" fill="#808080" font-family="'Arial-BoldMT'" font-size="10">Thank you!</tspan><tspan x="0" y="364.801" fill="#808080" font-family="'Arial-BoldMT'" font-size="10">Enjoy vectors and life!</tspan><tspan x="0" y="380" fill="#808080" font-family="'Arial-BoldMT'" font-size="10">Peace and LOVE!</tspan><tspan x="0" y="410.4" fill="#808080" font-family="'Arial-BoldMT'" font-size="10">Vector Open Stock Team</tspan></text>
		</g>
	</g>
</g>
</svg>
